<svg width="800" height="500" viewBox="0 0 800 500" xmlns="http://www.w3.org/2000/svg">
  <!-- Background -->
  <rect width="800" height="500" fill="#f0f4f8" />
  
  <!-- Grid pattern -->
  <path d="M0 50h800M0 100h800M0 150h800M0 200h800M0 250h800M0 300h800M0 350h800M0 400h800M0 450h800" stroke="#e1e8ed" stroke-width="1" />
  <path d="M50 0v500M100 0v500M150 0v500M200 0v500M250 0v500M300 0v500M350 0v500M400 0v500M450 0v500M500 0v500M550 0v500M600 0v500M650 0v500M700 0v500M750 0v500" stroke="#e1e8ed" stroke-width="1" />
  
  <!-- ASPL Fusion Logo placeholder -->
  <circle cx="400" cy="200" r="100" fill="#0055c4" opacity="0.8" />
  <circle cx="400" cy="200" r="70" fill="#54a0ff" opacity="0.9" />
  <circle cx="400" cy="200" r="40" fill="#5eead4" opacity="0.9" />
  
  <!-- Text -->
  <text x="400" y="350" font-family="Arial, sans-serif" font-size="24" font-weight="bold" text-anchor="middle" fill="#1a1c2a">ASPL Fusion</text>
  <text x="400" y="380" font-family="Arial, sans-serif" font-size="16" text-anchor="middle" fill="#2d3748">Image Coming Soon</text>
</svg>