<?xml version="1.0" encoding="utf-8"?>
<!-- Generator: Adobe Illustrator 26.2.1, SVG Export Plug-In . SVG Version: 6.00 Build 0)  -->
<svg version="1.1" xmlns="http://www.w3.org/2000/svg" xmlns:xlink="http://www.w3.org/1999/xlink" x="0px" y="0px"
	 viewBox="0 0 841.89 595.28" style="enable-background:new 0 0 841.89 595.28;" xml:space="preserve">
<style type="text/css">
	.st0{fill:#3BBFBF;}
	.st1{fill:none;stroke:#3BBFBF;stroke-miterlimit:10;}
	.st2{fill:#133E68;}
	.st3{fill:url(#SVGID_1_);}
	.st4{fill:url(#SVGID_00000067929829165060663300000016492896563579818895_);}
	.st5{fill:url(#SVGID_00000017508661032748709780000016742920213115757185_);}
	.st6{fill:#1577BA;}
	.st7{fill:url(#SVGID_00000039131225110367154950000007481929971109971346_);}
	.st8{fill:url(#SVGID_00000152973298299315319210000005357678336258020000_);}
	.st9{fill:url(#SVGID_00000106111786703826969020000012593630965589536180_);}
	.st10{fill:#0F6293;}
	.st11{fill:url(#SVGID_00000052815048708229492410000016962559991307386285_);}
	.st12{fill:url(#SVGID_00000160901152555821102400000016321076280805070013_);}
	.st13{fill:url(#SVGID_00000077323781707552852530000013588553688644304553_);}
	.st14{fill:url(#SVGID_00000165945393510970789670000001627827994874736045_);}
	.st15{fill:url(#SVGID_00000021816301580020816150000009899850592181669514_);}
	.st16{fill:url(#SVGID_00000027579247941199952770000013393213427497941182_);}
	.st17{fill:url(#SVGID_00000164505480424264519140000014971788144924179640_);}
	.st18{fill:url(#SVGID_00000155859219672228535370000007221470481061511082_);}
	.st19{fill:url(#SVGID_00000155861617363000612920000004938043191346144958_);}
	.st20{fill:url(#SVGID_00000003819752503585260930000015502337563482956183_);}
	.st21{fill:url(#SVGID_00000077296764784426308180000017770082442831891333_);}
	.st22{fill:url(#SVGID_00000011727613824660291920000017391092720680626847_);}
	.st23{fill:#FFFFFF;}
	.st24{fill:url(#SVGID_00000046331339986961186460000012322188714119820981_);}
	.st25{fill:url(#SVGID_00000134960026117954925510000009640909114744671140_);}
	.st26{fill:url(#SVGID_00000054974616331024838460000007774229612467104689_);}
	.st27{fill:url(#SVGID_00000009554771455397804370000010318642750378455685_);}
	.st28{fill:url(#SVGID_00000005986221927350170430000005724099296669447298_);}
	.st29{fill:#203264;}
	.st30{fill:#121416;}
	.st31{display:none;}
	.st32{display:inline;}
</style>
<g id="Layer_1">
	<g>
		<path class="st0" d="M574.53,187.01c-70.49,0.97-112.63,20.2-112.63,20.2c48.16-9.71,90.68-7.57,107.38-5.24
			s31.07,8.38,20.39,35.92c-3.73,9.62-8.21,19.08-13.18,28.29h2.28v20.46c16.18-21.75,23.91-36.52,23.91-36.52
			S645.02,186.04,574.53,187.01z"/>
		<path class="st0" d="M557.86,307.02v-10.5c-33.45,48.81-74.08,84.42-74.08,84.42c33.7-24.69,59.81-51.23,78.87-73.92H557.86z"/>
	</g>
	<g>
		<path class="st0" d="M286.63,229.23v5.31c32.91-46.87,71.48-80.68,71.48-80.68c-34.42,25.22-60.93,52.37-80.08,75.37H286.63z"/>
		<path class="st0" d="M272.6,332.84c-16.7-2.33-31.07-8.38-20.39-35.92c3.48-8.97,7.61-17.81,12.19-26.43h-0.79l5.75-30.52
			c-20.44,26.15-30.16,44.71-30.16,44.71s-42.33,64.08,28.16,63.11c70.49-0.97,112.63-20.2,112.63-20.2
			C331.83,337.3,289.3,335.17,272.6,332.84z"/>
	</g>
	<path class="st2" d="M323.93,162.67c0,0-68.35,35.73-110.3,77.67s12.96,71.46,12.96,71.46s-15.55-17.09-6.49-40.65
		S253.51,217.81,323.93,162.67z"/>
	<linearGradient id="SVGID_1_" gradientUnits="userSpaceOnUse" x1="264.3218" y1="221.9561" x2="264.3218" y2="317.1074">
		<stop  offset="0" style="stop-color:#565658"/>
		<stop  offset="0.2682" style="stop-color:#F7F7FA"/>
		<stop  offset="0.5019" style="stop-color:#565757"/>
		<stop  offset="0.7058" style="stop-color:#C9CACE"/>
		<stop  offset="1" style="stop-color:#606461"/>
	</linearGradient>
	<path class="st3" d="M265.94,268.13c0-15.41,3.95-29.27,10.23-38.89c-0.96-0.26-1.94-0.4-2.94-0.4
		c-11.47,0-20.77,17.59-20.77,39.29c0,21.7,9.3,39.29,20.77,39.29c1,0,1.98-0.14,2.94-0.4C269.89,297.4,265.94,283.54,265.94,268.13
		z"/>
	
		<linearGradient id="SVGID_00000026876916093768208350000001079769452992900286_" gradientUnits="userSpaceOnUse" x1="336.729" y1="217.684" x2="336.729" y2="329.1893">
		<stop  offset="0" style="stop-color:#565658"/>
		<stop  offset="0.2682" style="stop-color:#F7F7FA"/>
		<stop  offset="0.5019" style="stop-color:#565757"/>
		<stop  offset="0.7058" style="stop-color:#C9CACE"/>
		<stop  offset="1" style="stop-color:#606461"/>
	</linearGradient>
	<path style="fill:url(#SVGID_00000026876916093768208350000001079769452992900286_);" d="M357.55,304.05
		c-1.61-3.02-3.01-6.37-4.18-9.99c-2.47-7.66-3.89-16.5-3.89-25.93s1.42-18.28,3.89-25.93c1.17-3.62,2.57-6.97,4.18-9.99
		c3.42-6.43,7.74-11.35,12.62-14.13h-25.83h-7.85h-0.7h-10.83c-12.57,6.85-21.66,26.67-21.66,50.05c0,23.39,9.09,43.2,21.66,50.05
		h10.83h0.7h7.85h25.83C365.29,315.4,360.97,310.48,357.55,304.05z"/>
	
		<linearGradient id="SVGID_00000110467259934933269640000016950897983632430480_" gradientUnits="userSpaceOnUse" x1="293.234" y1="218.4607" x2="293.234" y2="336.5768">
		<stop  offset="0" style="stop-color:#102845"/>
		<stop  offset="0.2682" style="stop-color:#2379B9"/>
		<stop  offset="0.4972" style="stop-color:#113458"/>
		<stop  offset="0.7058" style="stop-color:#154577"/>
		<stop  offset="1" style="stop-color:#0B1E34"/>
	</linearGradient>
	<path style="fill:url(#SVGID_00000110467259934933269640000016950897983632430480_);" d="M294.74,268.13
		c0-21.78,7.88-40.45,19.12-48.45h-22.83c-11.22,8.01-19.1,26.69-19.1,48.45c0,22.21,8.2,41.19,19.79,48.92h22.81
		C302.94,309.32,294.74,290.34,294.74,268.13z"/>
	<path class="st6" d="M400.56,309.19c-1.68-3.99-3.55-6.8-5.5-9.11c-1.38-1.63-2.79-3.02-4.2-4.37c-6.86-6.6-21.85-9.68-21.85-9.68
		l2.14,8.06c6.65,1.53,12.31,5.89,17.05,11.44c2.38,2.78,4.52,5.86,6.43,9.03c8.34,13.85,12.28,29.44,12.28,29.44
		C405.8,326.56,403.47,316.11,400.56,309.19z"/>
	<path class="st6" d="M394.63,221.7c-1.91,3.17-4.06,6.25-6.43,9.03c-4.73,5.54-10.4,9.91-17.05,11.44l-2.14,8.06
		c0,0,14.98-3.07,21.85-9.68c1.41-1.36,2.82-2.74,4.2-4.37c1.95-2.31,3.82-5.12,5.5-9.11c2.92-6.93,5.24-17.37,6.35-34.8
		C406.91,192.26,402.97,207.84,394.63,221.7z"/>
	<path class="st2" d="M517.95,372.14c0,0,68.35-35.73,110.3-77.67S615.29,223,615.29,223s15.55,17.09,6.49,40.65
		S588.38,316.99,517.95,372.14z"/>
	
		<linearGradient id="SVGID_00000000930488040919758580000007316706156251564436_" gradientUnits="userSpaceOnUse" x1="577.5627" y1="221.9561" x2="577.5627" y2="317.1074">
		<stop  offset="0" style="stop-color:#565658"/>
		<stop  offset="0.2682" style="stop-color:#F7F7FA"/>
		<stop  offset="0.5019" style="stop-color:#565757"/>
		<stop  offset="0.7058" style="stop-color:#C9CACE"/>
		<stop  offset="1" style="stop-color:#606461"/>
	</linearGradient>
	<path style="fill:url(#SVGID_00000000930488040919758580000007316706156251564436_);" d="M575.94,268.13
		c0-15.41-3.95-29.27-10.23-38.89c0.96-0.26,1.94-0.4,2.94-0.4c11.47,0,20.77,17.59,20.77,39.29c0,21.7-9.3,39.29-20.77,39.29
		c-1,0-1.98-0.14-2.94-0.4C572,297.4,575.94,283.54,575.94,268.13z"/>
	
		<linearGradient id="SVGID_00000085249358074376953810000007862170095190998928_" gradientUnits="userSpaceOnUse" x1="505.1555" y1="217.684" x2="505.1555" y2="329.1893">
		<stop  offset="0" style="stop-color:#565658"/>
		<stop  offset="0.2682" style="stop-color:#F7F7FA"/>
		<stop  offset="0.5019" style="stop-color:#565757"/>
		<stop  offset="0.7058" style="stop-color:#C9CACE"/>
		<stop  offset="1" style="stop-color:#606461"/>
	</linearGradient>
	<path style="fill:url(#SVGID_00000085249358074376953810000007862170095190998928_);" d="M484.33,304.05
		c1.61-3.02,3.01-6.37,4.18-9.99c2.47-7.66,3.89-16.5,3.89-25.93s-1.42-18.28-3.89-25.93c-1.17-3.62-2.57-6.97-4.18-9.99
		c-3.42-6.43-7.74-11.35-12.62-14.13h25.83h7.85h0.7h10.83c12.57,6.85,21.66,26.67,21.66,50.05c0,23.39-9.09,43.2-21.66,50.05H506.1
		h-0.7h-7.85h-25.83C476.59,315.4,480.91,310.48,484.33,304.05z"/>
	
		<linearGradient id="SVGID_00000103242117603927466400000003623631681060151483_" gradientUnits="userSpaceOnUse" x1="548.6505" y1="218.4607" x2="548.6505" y2="336.5768">
		<stop  offset="0" style="stop-color:#102845"/>
		<stop  offset="0.2682" style="stop-color:#2379B9"/>
		<stop  offset="0.4972" style="stop-color:#113458"/>
		<stop  offset="0.7058" style="stop-color:#154577"/>
		<stop  offset="1" style="stop-color:#0B1E34"/>
	</linearGradient>
	<path style="fill:url(#SVGID_00000103242117603927466400000003623631681060151483_);" d="M547.15,268.13
		c0-21.78-7.88-40.45-19.12-48.45h22.83c11.22,8.01,19.1,26.69,19.1,48.45c0,22.21-8.2,41.19-19.79,48.92h-22.81
		C538.94,309.32,547.15,290.34,547.15,268.13z"/>
	<path class="st6" d="M441.33,309.19c1.68-3.99,3.55-6.8,5.5-9.11c1.38-1.63,2.79-3.02,4.2-4.37c6.86-6.6,21.85-9.68,21.85-9.68
		l-2.14,8.06c-6.65,1.53-12.31,5.89-17.05,11.44c-2.38,2.78-4.52,5.86-6.43,9.03c-8.34,13.85-12.28,29.44-12.28,29.44
		C436.08,326.56,438.41,316.11,441.33,309.19z"/>
	<path class="st6" d="M447.26,221.7c1.91,3.17,4.06,6.25,6.43,9.03c4.73,5.54,10.4,9.91,17.05,11.44l2.14,8.06
		c0,0-14.98-3.07-21.85-9.68c-1.41-1.36-2.82-2.74-4.2-4.37c-1.95-2.31-3.82-5.12-5.5-9.11c-2.92-6.93-5.24-17.37-6.35-34.8
		C434.97,192.26,438.92,207.84,447.26,221.7z"/>
	<path class="st10" d="M462.94,265.54c-7.64-0.58-17.93-3.56-17.93-3.56c-13.27-5.31-13.85-9.58-17.35-23.37
		c-3.46-13.66-6.66-12.83-6.72-12.82c-0.06-0.02-3.25-0.85-6.72,12.82c-3.5,13.79-4.08,18.06-17.35,23.37c0,0-10.29,2.98-17.93,3.56
		c0,0-4.47,0.26-4.47,2.59c0,2.33,4.47,2.59,4.47,2.59c7.64,0.58,17.93,3.56,17.93,3.56c13.27,5.31,13.85,9.58,17.35,23.37
		c3.46,13.66,6.66,12.83,6.72,12.82c0.06,0.02,3.25,0.85,6.72-12.82c3.5-13.79,4.08-18.06,17.35-23.37c0,0,10.29-2.98,17.93-3.56
		c0,0,4.47-0.26,4.47-2.59C467.4,265.8,462.94,265.54,462.94,265.54z"/>
	
		<radialGradient id="SVGID_00000050642295458497668050000002149912807618187156_" cx="682.438" cy="272.0854" r="25.9908" gradientTransform="matrix(0.5204 0 0 1.6136 65.8567 -170.905)" gradientUnits="userSpaceOnUse">
		<stop  offset="0" style="stop-color:#FFFFFF;stop-opacity:0"/>
		<stop  offset="0.4959" style="stop-color:#FFFFFF"/>
		<stop  offset="1" style="stop-color:#FFFFFF;stop-opacity:0"/>
	</radialGradient>
	<path style="fill:url(#SVGID_00000050642295458497668050000002149912807618187156_);" d="M421.54,268.16
		c0,23.36-0.38,42.29-0.56,42.29c-0.25,0-0.56-18.94-0.56-42.29s0.22-42.39,0.56-42.39C421.24,225.78,421.54,244.81,421.54,268.16z"
		/>
	
		<radialGradient id="SVGID_00000065033968467162671480000013776292908547358598_" cx="420.9752" cy="268.119" r="20.2764" gradientUnits="userSpaceOnUse">
		<stop  offset="0" style="stop-color:#F7F7FA"/>
		<stop  offset="0.9318" style="stop-color:#F7F7FA;stop-opacity:0"/>
	</radialGradient>
	<circle style="fill:url(#SVGID_00000065033968467162671480000013776292908547358598_);" cx="420.98" cy="268.12" r="20.28"/>
	
		<linearGradient id="SVGID_00000023255205758201148850000007711217981921946788_" gradientUnits="userSpaceOnUse" x1="372.1367" y1="217.2956" x2="372.1367" y2="308.2255">
		<stop  offset="0" style="stop-color:#565658"/>
		<stop  offset="0.3365" style="stop-color:#F7F7FA"/>
		<stop  offset="1" style="stop-color:#606461"/>
	</linearGradient>
	<path style="fill:url(#SVGID_00000023255205758201148850000007711217981921946788_);" d="M390.44,308.35
		c-0.73-0.97-1.47-1.91-2.25-2.82c-1.53,0.65-3.11,1-4.75,1c-11.56,0-20.93-17.19-20.93-38.4s9.37-38.4,20.93-38.4
		c1.63,0,3.22,0.35,4.75,1c0.89-1.05,1.74-2.15,2.57-3.26c-0.04-0.2-1.46-9.78-9.11-9.29c-15.7,1.55-28.15,23.32-28.15,49.96
		c0,27.43,13.2,49.69,29.55,50.04C386.65,317.82,389.19,314.92,390.44,308.35z"/>
	
		<linearGradient id="SVGID_00000111872111895462959230000011516367349843666573_" gradientUnits="userSpaceOnUse" x1="469.7477" y1="217.2956" x2="469.7477" y2="308.2255">
		<stop  offset="0" style="stop-color:#565658"/>
		<stop  offset="0.3365" style="stop-color:#F7F7FA"/>
		<stop  offset="1" style="stop-color:#606461"/>
	</linearGradient>
	<path style="fill:url(#SVGID_00000111872111895462959230000011516367349843666573_);" d="M451.44,308.35
		c0.73-0.97,1.47-1.91,2.25-2.82c1.53,0.65,3.11,1,4.75,1c11.56,0,20.93-17.19,20.93-38.4s-9.37-38.4-20.93-38.4
		c-1.63,0-3.22,0.35-4.75,1c-0.89-1.05-1.74-2.15-2.57-3.26c0.04-0.2,1.46-9.78,9.11-9.29c15.7,1.55,28.15,23.32,28.15,49.96
		c0,27.43-13.2,49.69-29.55,50.04C455.23,317.82,452.7,314.92,451.44,308.35z"/>
	
		<linearGradient id="SVGID_00000029027642945012105150000014868123964037885366_" gradientUnits="userSpaceOnUse" x1="372.1367" y1="217.2956" x2="372.1367" y2="308.2255">
		<stop  offset="0" style="stop-color:#565658"/>
		<stop  offset="0.3365" style="stop-color:#F7F7FA"/>
		<stop  offset="1" style="stop-color:#606461"/>
	</linearGradient>
	<path style="fill:url(#SVGID_00000029027642945012105150000014868123964037885366_);" d="M390.44,308.35
		c-0.73-0.97-1.47-1.91-2.25-2.82c-1.53,0.65-3.11,1-4.75,1c-11.56,0-20.93-17.19-20.93-38.4s9.37-38.4,20.93-38.4
		c1.63,0,3.22,0.35,4.75,1c0.89-1.05,1.74-2.15,2.57-3.26c-0.04-0.2-1.46-9.78-9.11-9.29c-15.7,1.55-28.15,23.32-28.15,49.96
		c0,27.43,13.2,49.69,29.55,50.04C386.65,317.82,389.19,314.92,390.44,308.35z"/>
	
		<linearGradient id="SVGID_00000091001414869127128760000009295108780350999209_" gradientUnits="userSpaceOnUse" x1="420.9396" y1="234.6128" x2="479.2924" y2="234.6128">
		<stop  offset="0" style="stop-color:#F6881F"/>
		<stop  offset="0.0254" style="stop-color:#F38120"/>
		<stop  offset="0.0688" style="stop-color:#EE6C23"/>
		<stop  offset="0.1246" style="stop-color:#E64525"/>
		<stop  offset="0.1378" style="stop-color:#E43825"/>
		<stop  offset="0.1901" style="stop-color:#E75A27"/>
		<stop  offset="0.2556" style="stop-color:#EB762C"/>
		<stop  offset="0.3278" style="stop-color:#EE8B31"/>
		<stop  offset="0.4069" style="stop-color:#F19C35"/>
		<stop  offset="0.4958" style="stop-color:#F4A939"/>
		<stop  offset="0.5999" style="stop-color:#F6B33B"/>
		<stop  offset="0.7335" style="stop-color:#F7B93D"/>
		<stop  offset="1" style="stop-color:#F7BB3D"/>
	</linearGradient>
	<path style="fill:url(#SVGID_00000091001414869127128760000009295108780350999209_);" d="M479.29,264.87
		c-0.03-0.76-0.08-1.51-0.14-2.25c-7.23-1.26-15.68-3.63-26.32-9.07c-11.39-5.83-15.28-15.92-16.96-18.77s-7.28-18.42-9.81-24.92
		c-2.52-6.51-5.13-5.44-5.13-5.44v18.71c5.64,0,7.95,13.98,11.19,24.21c3.24,10.23,13.72,12.95,25.24,15.02
		C466.54,264,475.86,264.67,479.29,264.87z"/>
	
		<linearGradient id="SVGID_00000132078690469209492600000000376254516431408814_" gradientUnits="userSpaceOnUse" x1="420.9396" y1="301.6397" x2="479.2925" y2="301.6397">
		<stop  offset="0" style="stop-color:#F6881F"/>
		<stop  offset="0.0254" style="stop-color:#F38120"/>
		<stop  offset="0.0688" style="stop-color:#EE6C23"/>
		<stop  offset="0.1246" style="stop-color:#E64525"/>
		<stop  offset="0.1378" style="stop-color:#E43825"/>
		<stop  offset="0.1901" style="stop-color:#E75A27"/>
		<stop  offset="0.2556" style="stop-color:#EB762C"/>
		<stop  offset="0.3278" style="stop-color:#EE8B31"/>
		<stop  offset="0.4069" style="stop-color:#F19C35"/>
		<stop  offset="0.4958" style="stop-color:#F4A939"/>
		<stop  offset="0.5999" style="stop-color:#F6B33B"/>
		<stop  offset="0.7335" style="stop-color:#F7B93D"/>
		<stop  offset="1" style="stop-color:#F7BB3D"/>
	</linearGradient>
	<path style="fill:url(#SVGID_00000132078690469209492600000000376254516431408814_);" d="M479.16,273.63
		c0.06-0.74,0.1-1.49,0.14-2.25c-3.43,0.2-12.76,0.87-21.92,2.51c-11.52,2.07-22.01,4.79-25.24,15.02
		c-3.24,10.23-5.54,24.21-11.19,24.21v18.71c0,0,2.61,1.07,5.13-5.44c2.52-6.51,8.12-22.07,9.81-24.92
		c1.68-2.85,5.57-12.95,16.96-18.77C463.48,277.26,471.93,274.89,479.16,273.63z"/>
	
		<linearGradient id="SVGID_00000064316984518213159890000005311434983180948624_" gradientUnits="userSpaceOnUse" x1="362.592" y1="234.6128" x2="420.9449" y2="234.6128">
		<stop  offset="0" style="stop-color:#F7BB3D"/>
		<stop  offset="0.2665" style="stop-color:#F7B93D"/>
		<stop  offset="0.4001" style="stop-color:#F6B33B"/>
		<stop  offset="0.5042" style="stop-color:#F4A939"/>
		<stop  offset="0.5931" style="stop-color:#F19C35"/>
		<stop  offset="0.6722" style="stop-color:#EE8B31"/>
		<stop  offset="0.7444" style="stop-color:#EB762C"/>
		<stop  offset="0.8099" style="stop-color:#E75A27"/>
		<stop  offset="0.8622" style="stop-color:#E43825"/>
		<stop  offset="0.8754" style="stop-color:#E64525"/>
		<stop  offset="0.9312" style="stop-color:#EE6C23"/>
		<stop  offset="0.9746" style="stop-color:#F38120"/>
		<stop  offset="1" style="stop-color:#F6881F"/>
	</linearGradient>
	<path style="fill:url(#SVGID_00000064316984518213159890000005311434983180948624_);" d="M415.81,209.86
		c-2.52,6.51-8.12,22.07-9.81,24.92s-5.57,12.95-16.96,18.77c-10.64,5.44-19.09,7.81-26.32,9.07c-0.06,0.74-0.1,1.49-0.14,2.25
		c3.43-0.2,12.76-0.87,21.92-2.51c11.52-2.07,22.01-4.79,25.24-15.02c3.24-10.23,5.54-24.21,11.19-24.21v-18.71
		C420.94,204.42,418.34,203.35,415.81,209.86z"/>
	
		<radialGradient id="SVGID_00000162349154138243712030000005392173407230282940_" cx="195.4137" cy="522.81" r="25.9908" gradientTransform="matrix(0 -0.5204 1.7693 0 -504.0258 369.8059)" gradientUnits="userSpaceOnUse">
		<stop  offset="0" style="stop-color:#FFFFFF;stop-opacity:0"/>
		<stop  offset="0.4959" style="stop-color:#FFFFFF"/>
		<stop  offset="1" style="stop-color:#FFFFFF;stop-opacity:0"/>
	</radialGradient>
	<path style="fill:url(#SVGID_00000162349154138243712030000005392173407230282940_);" d="M421.03,267.56
		c25.61,0,46.38,0.38,46.38,0.56c0,0.25-20.76,0.56-46.38,0.56c-25.61,0-46.48-0.22-46.48-0.56
		C374.55,267.86,395.41,267.56,421.03,267.56z"/>
	
		<radialGradient id="SVGID_00000109018806006326806550000018441835858678887325_" cx="420.975" cy="268.1233" r="17.9743" gradientUnits="userSpaceOnUse">
		<stop  offset="0" style="stop-color:#FFFFFF;stop-opacity:0"/>
		<stop  offset="0.4959" style="stop-color:#FFFFFF"/>
		<stop  offset="1" style="stop-color:#FFFFFF;stop-opacity:0"/>
	</radialGradient>
	<path style="fill:url(#SVGID_00000109018806006326806550000018441835858678887325_);" d="M420.52,267.64
		c7.15-7.15,13.26-12.62,13.41-12.47c0.21,0.21-5.33,6.26-12.47,13.41c-7.15,7.15-13.15,12.79-13.43,12.5
		C407.8,280.86,413.38,274.78,420.52,267.64z"/>
	
		<radialGradient id="SVGID_00000078012157883464295160000005067736233670846850_" cx="420.9752" cy="268.119" r="21.7614" gradientUnits="userSpaceOnUse">
		<stop  offset="0.1261" style="stop-color:#F7F7FA"/>
		<stop  offset="0.9318" style="stop-color:#F7F7FA;stop-opacity:0"/>
	</radialGradient>
	<circle style="fill:url(#SVGID_00000078012157883464295160000005067736233670846850_);" cx="420.98" cy="268.12" r="21.76"/>
	
		<radialGradient id="SVGID_00000161595593299672715770000012021409017021745540_" cx="167.5435" cy="582.029" r="17.9743" gradientTransform="matrix(0 -1 1 0 -161.0501 435.6632)" gradientUnits="userSpaceOnUse">
		<stop  offset="0" style="stop-color:#FFFFFF;stop-opacity:0"/>
		<stop  offset="0.4959" style="stop-color:#FFFFFF"/>
		<stop  offset="1" style="stop-color:#FFFFFF;stop-opacity:0"/>
	</radialGradient>
	<path style="fill:url(#SVGID_00000161595593299672715770000012021409017021745540_);" d="M420.49,268.57
		c-7.15-7.15-12.62-13.26-12.47-13.41c0.21-0.21,6.26,5.33,13.41,12.47c7.15,7.15,12.79,13.15,12.5,13.43
		C433.71,281.29,427.64,275.72,420.49,268.57z"/>
	<path class="st23" d="M413.76,307.26c-0.18-2.17-0.36-4.29-0.61-6.48c-0.97-3.3-1.89-6.87-2.87-10.17
		c1.62,6.39,2.05,11.42,2.48,16.73c0.19,2.3,0.39,4.68,0.69,7.18c0.53,4.37,1.6,8.9,2.49,12.18c0.73,1.81,1.47,3.01,2.14,3.79
		c-0.69-2.21-2.82-9.34-3.64-16.09C414.14,311.92,413.95,309.55,413.76,307.26z"/>
	
		<linearGradient id="SVGID_00000072976033066371655250000008365932245931434156_" gradientUnits="userSpaceOnUse" x1="362.592" y1="329.9834" x2="420.9449" y2="329.9834">
		<stop  offset="0" style="stop-color:#F7BB3D"/>
		<stop  offset="0.2665" style="stop-color:#F7B93D"/>
		<stop  offset="0.4001" style="stop-color:#F6B33B"/>
		<stop  offset="0.5042" style="stop-color:#F4A939"/>
		<stop  offset="0.5931" style="stop-color:#F19C35"/>
		<stop  offset="0.6722" style="stop-color:#EE8B31"/>
		<stop  offset="0.7444" style="stop-color:#EB762C"/>
		<stop  offset="0.8099" style="stop-color:#E75A27"/>
		<stop  offset="0.8622" style="stop-color:#E43825"/>
		<stop  offset="0.8754" style="stop-color:#E64525"/>
		<stop  offset="0.9312" style="stop-color:#EE6C23"/>
		<stop  offset="0.9746" style="stop-color:#F38120"/>
		<stop  offset="1" style="stop-color:#F6881F"/>
	</linearGradient>
	<path style="fill:url(#SVGID_00000072976033066371655250000008365932245931434156_);" d="M417.77,330.1
		c-0.06-0.07-0.11-0.15-0.17-0.23C417.66,329.95,417.71,330.02,417.77,330.1z"/>
	
		<linearGradient id="SVGID_00000145779599105798374420000004050014628918620085_" gradientUnits="userSpaceOnUse" x1="362.592" y1="329.2534" x2="420.9449" y2="329.2534">
		<stop  offset="0" style="stop-color:#F7BB3D"/>
		<stop  offset="0.2665" style="stop-color:#F7B93D"/>
		<stop  offset="0.4001" style="stop-color:#F6B33B"/>
		<stop  offset="0.5042" style="stop-color:#F4A939"/>
		<stop  offset="0.5931" style="stop-color:#F19C35"/>
		<stop  offset="0.6722" style="stop-color:#EE8B31"/>
		<stop  offset="0.7444" style="stop-color:#EB762C"/>
		<stop  offset="0.8099" style="stop-color:#E75A27"/>
		<stop  offset="0.8622" style="stop-color:#E43825"/>
		<stop  offset="0.8754" style="stop-color:#E64525"/>
		<stop  offset="0.9312" style="stop-color:#EE6C23"/>
		<stop  offset="0.9746" style="stop-color:#F38120"/>
		<stop  offset="1" style="stop-color:#F6881F"/>
	</linearGradient>
	<path style="fill:url(#SVGID_00000145779599105798374420000004050014628918620085_);" d="M417.31,329.43
		c-0.07-0.11-0.15-0.24-0.22-0.36C417.16,329.2,417.23,329.32,417.31,329.43z"/>
	
		<linearGradient id="SVGID_00000015336816238210002130000004692241333449064600_" gradientUnits="userSpaceOnUse" x1="362.592" y1="328.443" x2="420.9449" y2="328.443">
		<stop  offset="0" style="stop-color:#F7BB3D"/>
		<stop  offset="0.2665" style="stop-color:#F7B93D"/>
		<stop  offset="0.4001" style="stop-color:#F6B33B"/>
		<stop  offset="0.5042" style="stop-color:#F4A939"/>
		<stop  offset="0.5931" style="stop-color:#F19C35"/>
		<stop  offset="0.6722" style="stop-color:#EE8B31"/>
		<stop  offset="0.7444" style="stop-color:#EB762C"/>
		<stop  offset="0.8099" style="stop-color:#E75A27"/>
		<stop  offset="0.8622" style="stop-color:#E43825"/>
		<stop  offset="0.8754" style="stop-color:#E64525"/>
		<stop  offset="0.9312" style="stop-color:#EE6C23"/>
		<stop  offset="0.9746" style="stop-color:#F38120"/>
		<stop  offset="1" style="stop-color:#F6881F"/>
	</linearGradient>
	<path style="fill:url(#SVGID_00000015336816238210002130000004692241333449064600_);" d="M416.95,328.83
		c-0.13-0.24-0.27-0.49-0.4-0.77C416.68,328.33,416.81,328.59,416.95,328.83z"/>
	
		<linearGradient id="SVGID_00000031189041139626252350000013715450967417927338_" gradientUnits="userSpaceOnUse" x1="420.9045" y1="316.3352" x2="303.158" y2="316.3352">
		<stop  offset="0" style="stop-color:#F6881F"/>
		<stop  offset="0.0254" style="stop-color:#F38120"/>
		<stop  offset="0.0688" style="stop-color:#EE6C23"/>
		<stop  offset="0.1246" style="stop-color:#E64525"/>
		<stop  offset="0.1378" style="stop-color:#E43825"/>
		<stop  offset="0.1901" style="stop-color:#E75A27"/>
		<stop  offset="0.2556" style="stop-color:#EB762C"/>
		<stop  offset="0.3278" style="stop-color:#EE8B31"/>
		<stop  offset="0.4069" style="stop-color:#F19C35"/>
		<stop  offset="0.4958" style="stop-color:#F4A939"/>
		<stop  offset="0.5999" style="stop-color:#F6B33B"/>
		<stop  offset="0.7335" style="stop-color:#F7B93D"/>
		<stop  offset="1" style="stop-color:#F7BB3D"/>
	</linearGradient>
	<path style="fill:url(#SVGID_00000031189041139626252350000013715450967417927338_);" d="M413.15,300.78
		c0.25,2.19,0.43,4.31,0.61,6.48c0.19,2.29,0.38,4.66,0.68,7.14c0.82,6.75,2.94,13.88,3.64,16.09c1.61,1.86,2.87,1.35,2.87,1.35
		v-18.71C417.37,313.12,415.13,307.5,413.15,300.78z"/>
	
		<linearGradient id="SVGID_00000036244286960819804940000017884483729915660206_" gradientUnits="userSpaceOnUse" x1="415.6942" y1="299.6324" x2="350.4958" y2="299.6324">
		<stop  offset="0" style="stop-color:#F6881F"/>
		<stop  offset="0.0133" style="stop-color:#F38120"/>
		<stop  offset="0.036" style="stop-color:#EE6C23"/>
		<stop  offset="0.0652" style="stop-color:#E64525"/>
		<stop  offset="0.0721" style="stop-color:#E43825"/>
		<stop  offset="0.0833" style="stop-color:#E54326"/>
		<stop  offset="0.1311" style="stop-color:#E96429"/>
		<stop  offset="0.1849" style="stop-color:#EC7D2D"/>
		<stop  offset="0.2443" style="stop-color:#EF8F32"/>
		<stop  offset="0.3114" style="stop-color:#F29F36"/>
		<stop  offset="0.3898" style="stop-color:#F4AB39"/>
		<stop  offset="0.4867" style="stop-color:#F6B43C"/>
		<stop  offset="0.6226" style="stop-color:#F7B93D"/>
		<stop  offset="1" style="stop-color:#F7BB3D"/>
	</linearGradient>
	<path style="fill:url(#SVGID_00000036244286960819804940000017884483729915660206_);" d="M413.45,314.51
		c-0.3-2.5-0.5-4.88-0.69-7.18c-0.44-5.31-0.86-10.35-2.48-16.73c0.49,1.64,0.16,0.45-0.52-1.69
		c-3.24-10.23-13.72-12.95-25.24-15.02c-9.17-1.65-18.49-2.31-21.92-2.51c0.03,0.76,0.08,1.51,0.14,2.25
		c7.23,1.26,15.68,3.63,26.32,9.07c11.39,5.83,15.28,15.92,16.96,18.77c1.68,2.85,7.28,18.42,9.81,24.92
		c0.22,0.56,0.43,1.04,0.65,1.49c-0.17-0.36-0.35-0.76-0.52-1.18C415.05,323.41,413.98,318.89,413.45,314.51z"/>
	<path class="st23" d="M418.08,330.48L418.08,330.48c-0.1-0.12-0.21-0.25-0.31-0.39C417.87,330.23,417.98,330.37,418.08,330.48z"/>
	<path class="st23" d="M417.6,329.87c-0.1-0.14-0.19-0.28-0.29-0.44C417.4,329.59,417.5,329.73,417.6,329.87z"/>
	<path class="st23" d="M413.15,300.78c-0.49-1.66-0.96-3.39-1.44-5.11C412.18,297.39,412.66,299.12,413.15,300.78
		C413.15,300.78,413.15,300.78,413.15,300.78z"/>
	<path class="st23" d="M417.09,329.07c-0.05-0.08-0.09-0.16-0.14-0.24C416.99,328.91,417.04,328.99,417.09,329.07z"/>
	<path class="st23" d="M416.54,328.06c-0.03-0.06-0.06-0.12-0.09-0.18C416.49,327.94,416.52,328,416.54,328.06z"/>
	<path class="st23" d="M413.76,307.26c-0.18-2.17-0.36-4.29-0.61-6.48c-0.49-1.66-0.96-3.38-1.44-5.11
		c-0.47-1.71-0.94-3.42-1.43-5.06c1.62,6.39,2.05,11.42,2.48,16.73c0.19,2.3,0.39,4.68,0.69,7.18c0.53,4.37,1.6,8.9,2.49,12.18
		c0.17,0.43,0.35,0.82,0.52,1.18c0.03,0.06,0.06,0.12,0.09,0.18c0.14,0.28,0.27,0.53,0.4,0.77c0.05,0.08,0.09,0.17,0.14,0.24
		c0.07,0.12,0.15,0.25,0.22,0.36c0.1,0.15,0.2,0.3,0.29,0.44c0.06,0.08,0.11,0.15,0.17,0.23c0.1,0.14,0.21,0.27,0.31,0.39
		c-0.69-2.21-2.82-9.34-3.64-16.09C414.14,311.92,413.95,309.55,413.76,307.26z"/>
	<g>
		<polygon class="st29" points="241.99,426.06 224.78,463.47 231.64,463.47 246.14,431.49 254.62,450.78 242.9,450.78 
			240.83,456.35 257.07,456.35 260.21,463.47 267.5,463.47 249.37,426.06 		"/>
		<path class="st29" d="M361.61,450.78v-2.59v-22.14h-6.62l0.4,24.73c0,12.69,12.04,13.33,12.04,13.33h16.83v-6.34
			c0,0-11.13,0-16.83,0C361.74,457.77,361.61,450.78,361.61,450.78z"/>
		<path class="st29" d="M334.91,426.06h-20.29v38.06h5.24l0.1-32.36h14.18c1.46,0,7.67,1.17,7.67,9.13s-8.45,7.28-8.45,7.28h-8.25
			v5.4h10.75c4.44,0,11.38-2.98,11.38-14.82S334.91,426.06,334.91,426.06z"/>
		<path class="st29" d="M295.49,442.82c-7.95-1.63-13.59-0.49-16.02-5.63s7.57-9.32,21.36-3.01l1.07-5.73c0,0-7.18-2.72-13.05-3.01
			s-12.58,1.55-14.81,7.86c-2.23,6.31,2.91,11.36,6.31,12.33c3.4,0.97,15.05,1.17,18.16,5.15c3.11,3.98-1.46,7.77-4.27,8.35
			c-2.82,0.58-14.95,0.1-19.52-3.79l-1.22,6.02c0,0,9.28,2.91,16.86,3.4s14.56-3.59,14.56-9.71S302.58,444.28,295.49,442.82z"/>
		<rect x="530.94" y="434.28" class="st30" width="2.52" height="29.84"/>
		<polygon class="st30" points="415.4,424.57 415.4,427.09 415.4,443.83 415.4,446.35 415.4,464.12 417.92,464.12 417.92,446.35 
			440.75,446.35 440.75,443.83 417.92,443.83 417.92,427.09 442.84,427.09 442.84,424.57 417.92,424.57 		"/>
		<path class="st30" d="M561.5,434.28c-8.24,0-14.92,6.68-14.92,14.92s6.68,14.92,14.92,14.92c8.24,0,14.92-6.68,14.92-14.92
			S569.74,434.28,561.5,434.28z M561.5,461.98c-7.06,0-12.79-5.72-12.79-12.79s5.72-12.79,12.79-12.79
			c7.06,0,12.79,5.72,12.79,12.79S568.57,461.98,561.5,461.98z"/>
		<path class="st30" d="M479.09,453.79c0,0-1.55,8.19-12.04,8.19s-10.39-10.92-10.39-10.92v-16.79h-2.52v16.79
			c0,6.11,3.88,13.7,12.82,13.7s12.14-5.63,12.14-5.63v4.98h2.52v-29.84h-2.52V453.79z"/>
		<path class="st30" d="M604.36,434.28c-8.93,0-12.14,5.63-12.14,5.63v-4.98h-2.52v29.84h2.52v-19.52c0,0,1.55-8.19,12.04-8.19
			s10.39,10.92,10.39,10.92v16.79h2.52v-16.79C617.18,441.87,613.29,434.28,604.36,434.28z"/>
		<path class="st30" d="M532.2,421.91c-1.36,0-2.46,1.1-2.46,2.46s1.1,2.46,2.46,2.46c1.36,0,2.46-1.1,2.46-2.46
			S533.56,421.91,532.2,421.91z"/>
		<path class="st30" d="M504.53,447.14c-3.29-0.24-4.96-1.59-5.77-2.68c-1-1.33-1.14-2.79-0.95-3.71c0.5-2.35,3.56-4.93,9.07-5.05
			c5.72-0.1,9.24,2.64,9.31,2.69c0.47,0.38,1.15,0.31,1.53-0.16c0.38-0.47,0.31-1.15-0.16-1.54c-0.17-0.13-4.16-3.32-10.73-3.17
			c-6.74,0.14-10.46,3.5-11.16,6.77c-0.39,1.8,0.11,3.85,1.33,5.48c1.09,1.45,3.25,3.24,7.36,3.54c7.58,0.56,10.01,2.72,11.27,4.54
			c0.4,0.57,0.84,2.03,0.43,3.7c-0.41,1.66-1.57,3.02-3.36,3.95c-4.45,2.31-13.28,0.59-16.37-2.33c-0.44-0.41-1.13-0.39-1.54,0.05
			s-0.39,1.13,0.05,1.54c2.49,2.35,7.72,3.99,12.5,3.99c2.36,0,4.62-0.4,6.38-1.32c2.98-1.55,4.07-3.77,4.47-5.36
			c0.55-2.23,0.02-4.36-0.75-5.47C515.14,449.31,511.16,447.62,504.53,447.14z"/>
	</g>
</g>
<g id="Layer_2" class="st31">
</g>
</svg>
