<svg xmlns="http://www.w3.org/2000/svg" xml:space="preserve" viewBox="0 0 595.28 420.94"><style>.st4{fill:#133e68}.st9{fill:#1577ba}.st26{fill:#fff}</style><g id="Layer_1"><path d="M451.22 130.09c-70.49.97-112.63 20.2-112.63 20.2 48.16-9.71 90.68-7.57 107.38-5.24s31.07 8.38 20.39 35.92c-3.73 9.62-8.21 19.08-13.18 28.29h2.28v20.46c16.18-21.75 23.91-36.52 23.91-36.52s42.34-64.09-28.15-63.11m-16.67 120v-10.5c-33.45 48.81-74.08 84.42-74.08 84.42 33.7-24.69 59.81-51.23 78.87-73.92zM163.32 172.3v5.31c32.91-46.87 71.48-80.68 71.48-80.68-34.42 25.22-60.93 52.37-80.08 75.37zM149.3 275.91c-16.7-2.33-31.07-8.38-20.39-35.92 3.48-8.97 7.61-17.81 12.19-26.43h-.79l5.75-30.52c-20.44 26.15-30.16 44.71-30.16 44.71s-42.33 64.08 28.16 63.11 112.63-20.2 112.63-20.2c-48.17 9.71-90.69 7.58-107.39 5.25" style="fill:#3bbfbf"/><path d="M200.63 105.74s-68.35 35.73-110.3 77.67 12.96 71.46 12.96 71.46-15.55-17.09-6.49-40.65 33.4-53.33 103.83-108.48" class="st4"/><linearGradient id="SVGID_1_" x1="141.017" x2="141.017" y1="165.028" y2="260.179" gradientUnits="userSpaceOnUse"><stop offset="0" style="stop-color:#8b8d8c"/><stop offset=".268" style="stop-color:#f7f7fa"/><stop offset=".502" style="stop-color:#5d605e"/><stop offset=".706" style="stop-color:#cacacf"/><stop offset="1" style="stop-color:#8b8d8c"/></linearGradient><path d="M142.64 211.2c0-15.41 3.95-29.27 10.23-38.89-.96-.26-1.94-.4-2.94-.4-11.47 0-20.77 17.59-20.77 39.29s9.3 39.29 20.77 39.29c1 0 1.98-.14 2.94-.4-6.29-9.62-10.23-23.48-10.23-38.89" style="fill:url(#SVGID_1_)"/><linearGradient id="SVGID_00000004537127620311181650000010077842525319201983_" x1="213.424" x2="213.424" y1="160.756" y2="272.261" gradientUnits="userSpaceOnUse"><stop offset="0" style="stop-color:#8b8d8c"/><stop offset=".268" style="stop-color:#f7f7fa"/><stop offset=".502" style="stop-color:#5d605e"/><stop offset=".706" style="stop-color:#cacacf"/><stop offset="1" style="stop-color:#8b8d8c"/></linearGradient><path d="M234.25 247.12c-1.61-3.02-3.01-6.37-4.18-9.99-2.47-7.66-3.89-16.5-3.89-25.93s1.42-18.28 3.89-25.93c1.17-3.62 2.57-6.97 4.18-9.99 3.42-6.43 7.74-11.35 12.62-14.13h-45.21C189.09 168 180 187.82 180 211.2c0 23.39 9.09 43.2 21.66 50.05h45.21c-4.88-2.78-9.2-7.7-12.62-14.13" style="fill:url(#SVGID_00000004537127620311181650000010077842525319201983_)"/><linearGradient id="SVGID_00000006694263546794545350000003860779668578585777_" x1="169.929" x2="169.929" y1="161.639" y2="258.66" gradientUnits="userSpaceOnUse"><stop offset="0" style="stop-color:#102845"/><stop offset=".268" style="stop-color:#257ab9"/><stop offset=".497" style="stop-color:#113558"/><stop offset=".706" style="stop-color:#144578"/><stop offset="1" style="stop-color:#0c1e34"/></linearGradient><path d="M171.43 211.2c0-21.78 7.88-40.45 19.12-48.45h-22.83c-11.22 8.01-19.1 26.69-19.1 48.45 0 22.21 8.2 41.19 19.79 48.92h22.81c-11.58-7.73-19.79-26.71-19.79-48.92" style="fill:url(#SVGID_00000006694263546794545350000003860779668578585777_)"/><path d="M277.25 252.26c-1.68-3.99-3.55-6.8-5.5-9.11-1.38-1.63-2.79-3.02-4.2-4.37-6.86-6.6-21.85-9.68-21.85-9.68l2.14 8.06c6.65 1.53 12.31 5.89 17.05 11.44 2.38 2.78 4.52 5.86 6.43 9.03 8.34 13.85 12.28 29.44 12.28 29.44-1.1-17.44-3.43-27.88-6.35-34.81m-5.93-87.49c-1.91 3.17-4.06 6.25-6.43 9.03-4.73 5.54-10.4 9.91-17.05 11.44l-2.14 8.06s14.98-3.07 21.85-9.68c1.41-1.36 2.82-2.74 4.2-4.37 1.95-2.31 3.82-5.12 5.5-9.11 2.92-6.93 5.24-17.37 6.35-34.8.01-.01-3.94 15.57-12.28 29.43" class="st9"/><path d="M394.65 315.21s68.35-35.73 110.3-77.67-12.96-71.46-12.96-71.46 15.55 17.09 6.49 40.65-33.41 53.33-103.83 108.48" class="st4"/><linearGradient id="SVGID_00000157292872361705325920000009255416782953812103_" x1="454.258" x2="454.258" y1="165.028" y2="260.179" gradientUnits="userSpaceOnUse"><stop offset="0" style="stop-color:#8b8d8c"/><stop offset=".268" style="stop-color:#f7f7fa"/><stop offset=".502" style="stop-color:#5d605e"/><stop offset=".706" style="stop-color:#cacacf"/><stop offset="1" style="stop-color:#8b8d8c"/></linearGradient><path d="M452.64 211.2c0-15.41-3.95-29.27-10.23-38.89.96-.26 1.94-.4 2.94-.4 11.47 0 20.77 17.59 20.77 39.29s-9.3 39.29-20.77 39.29c-1 0-1.98-.14-2.94-.4 6.28-9.62 10.23-23.48 10.23-38.89" style="fill:url(#SVGID_00000157292872361705325920000009255416782953812103_)"/><linearGradient id="SVGID_00000007404240400420412230000017333598502755068092_" x1="381.851" x2="381.851" y1="160.756" y2="272.261" gradientUnits="userSpaceOnUse"><stop offset="0" style="stop-color:#8b8d8c"/><stop offset=".268" style="stop-color:#f7f7fa"/><stop offset=".502" style="stop-color:#5d605e"/><stop offset=".706" style="stop-color:#cacacf"/><stop offset="1" style="stop-color:#8b8d8c"/></linearGradient><path d="M361.03 247.12c1.61-3.02 3.01-6.37 4.18-9.99 2.47-7.66 3.89-16.5 3.89-25.93s-1.42-18.28-3.89-25.93c-1.17-3.62-2.57-6.97-4.18-9.99-3.42-6.43-7.74-11.35-12.62-14.13h45.21c12.57 6.85 21.66 26.67 21.66 50.05 0 23.39-9.09 43.2-21.66 50.05h-45.21c4.88-2.78 9.2-7.7 12.62-14.13" style="fill:url(#SVGID_00000007404240400420412230000017333598502755068092_)"/><linearGradient id="SVGID_00000165229631866154688540000012277658076867377027_" x1="425.346" x2="425.346" y1="161.639" y2="258.66" gradientUnits="userSpaceOnUse"><stop offset="0" style="stop-color:#102845"/><stop offset=".268" style="stop-color:#257ab9"/><stop offset=".497" style="stop-color:#113558"/><stop offset=".706" style="stop-color:#144578"/><stop offset="1" style="stop-color:#0c1e34"/></linearGradient><path d="M423.84 211.2c0-21.78-7.88-40.45-19.12-48.45h22.83c11.22 8.01 19.1 26.69 19.1 48.45 0 22.21-8.2 41.19-19.79 48.92h-22.81c11.59-7.73 19.79-26.71 19.79-48.92" style="fill:url(#SVGID_00000165229631866154688540000012277658076867377027_)"/><path d="M318.02 252.26c1.68-3.99 3.55-6.8 5.5-9.11 1.38-1.63 2.79-3.02 4.2-4.37 6.86-6.6 21.85-9.68 21.85-9.68l-2.14 8.06c-6.65 1.53-12.31 5.89-17.05 11.44-2.38 2.78-4.52 5.86-6.43 9.03-8.34 13.85-12.28 29.44-12.28 29.44 1.11-17.44 3.44-27.88 6.35-34.81m5.93-87.49c1.91 3.17 4.06 6.25 6.43 9.03 4.73 5.54 10.4 9.91 17.05 11.44l2.14 8.06s-14.98-3.07-21.85-9.68c-1.41-1.36-2.82-2.74-4.2-4.37-1.95-2.31-3.82-5.12-5.5-9.11-2.92-6.93-5.24-17.37-6.35-34.8 0-.01 3.94 15.57 12.28 29.43" class="st9"/><path d="M339.63 208.61c-7.64-.58-17.93-3.56-17.93-3.56-13.27-5.31-13.85-9.58-17.35-23.37-3.46-13.66-6.66-12.83-6.72-12.82-.06-.02-3.25-.85-6.72 12.82-3.5 13.79-4.08 18.06-17.35 23.37 0 0-10.29 2.98-17.93 3.56 0 0-4.47.26-4.47 2.59s4.47 2.59 4.47 2.59c7.64.58 17.93 3.56 17.93 3.56 13.27 5.31 13.85 9.58 17.35 23.37 3.46 13.66 6.66 12.83 6.72 12.82.06.02 3.25.85 6.72-12.82 3.5-13.79 4.08-18.06 17.35-23.37 0 0 10.29-2.98 17.93-3.56 0 0 4.47-.26 4.47-2.59s-4.47-2.59-4.47-2.59" style="fill:#0f6293"/><radialGradient id="SVGID_00000029046072385642907720000007877491029283679901_" cx="899.183" cy="238.993" r="25.991" gradientTransform="matrix(.5204 0 0 1.6136 -170.235 -174.438)" gradientUnits="userSpaceOnUse"><stop offset="0" style="stop-color:#fff;stop-opacity:0"/><stop offset=".496" style="stop-color:#fff"/><stop offset="1" style="stop-color:#fff;stop-opacity:0"/></radialGradient><path d="M298.23 211.24c0 23.36-.38 42.29-.56 42.29-.25 0-.56-18.94-.56-42.29s.22-42.39.56-42.39c.26 0 .56 19.03.56 42.39" style="fill:url(#SVGID_00000029046072385642907720000007877491029283679901_)"/><radialGradient id="SVGID_00000052095670588345394530000016141603053148006824_" cx="297.671" cy="211.191" r="20.276" gradientUnits="userSpaceOnUse"><stop offset="0" style="stop-color:#f7f7fa"/><stop offset=".932" style="stop-color:#f7f7fa;stop-opacity:0"/></radialGradient><circle cx="297.67" cy="211.19" r="20.28" style="fill:url(#SVGID_00000052095670588345394530000016141603053148006824_)"/><linearGradient id="SVGID_00000127761196082729815660000017304405437715185073_" x1="248.832" x2="248.832" y1="160.367" y2="251.297" gradientUnits="userSpaceOnUse"><stop offset="0" style="stop-color:#565658"/><stop offset=".337" style="stop-color:#f7f7fa"/><stop offset="1" style="stop-color:#606461"/></linearGradient><path d="M267.14 251.42a57 57 0 0 0-2.25-2.82c-1.53.65-3.11 1-4.75 1-11.56 0-20.93-17.19-20.93-38.4s9.37-38.4 20.93-38.4c1.63 0 3.22.35 4.75 1 .89-1.05 1.74-2.15 2.57-3.26-.04-.2-1.46-9.78-9.11-9.29-15.7 1.55-28.15 23.32-28.15 49.96 0 27.43 13.2 49.69 29.55 50.04 3.6-.36 6.13-3.26 7.39-9.83" style="fill:url(#SVGID_00000127761196082729815660000017304405437715185073_)"/><linearGradient id="SVGID_00000032622990920443055700000011351071547789350056_" x1="346.443" x2="346.443" y1="160.367" y2="251.297" gradientUnits="userSpaceOnUse"><stop offset="0" style="stop-color:#8b8d8c"/><stop offset=".268" style="stop-color:#f7f7fa"/><stop offset=".502" style="stop-color:#5d605e"/><stop offset=".706" style="stop-color:#cacacf"/><stop offset="1" style="stop-color:#8b8d8c"/></linearGradient><path d="M328.14 251.42c.73-.97 1.47-1.91 2.25-2.82 1.53.65 3.11 1 4.75 1 11.56 0 20.93-17.19 20.93-38.4s-9.37-38.4-20.93-38.4c-1.63 0-3.22.35-4.75 1-.89-1.05-1.74-2.15-2.57-3.26.04-.2 1.46-9.78 9.11-9.29 15.7 1.55 28.15 23.32 28.15 49.96 0 27.43-13.2 49.69-29.55 50.04-3.6-.36-6.14-3.26-7.39-9.83" style="fill:url(#SVGID_00000032622990920443055700000011351071547789350056_)"/><linearGradient id="SVGID_00000140702062290216783950000007713213262350078133_" x1="248.832" x2="248.832" y1="160.367" y2="251.297" gradientUnits="userSpaceOnUse"><stop offset="0" style="stop-color:#8b8d8c"/><stop offset=".268" style="stop-color:#f7f7fa"/><stop offset=".502" style="stop-color:#5d605e"/><stop offset=".706" style="stop-color:#cacacf"/><stop offset="1" style="stop-color:#8b8d8c"/></linearGradient><path d="M267.14 251.42a57 57 0 0 0-2.25-2.82c-1.53.65-3.11 1-4.75 1-11.56 0-20.93-17.19-20.93-38.4s9.37-38.4 20.93-38.4c1.63 0 3.22.35 4.75 1 .89-1.05 1.74-2.15 2.57-3.26-.04-.2-1.46-9.78-9.11-9.29-15.7 1.55-28.15 23.32-28.15 49.96 0 27.43 13.2 49.69 29.55 50.04 3.6-.36 6.13-3.26 7.39-9.83" style="fill:url(#SVGID_00000140702062290216783950000007713213262350078133_)"/><linearGradient id="SVGID_00000004515922317442128950000000343794112844171919_" x1="297.635" x2="355.988" y1="177.685" y2="177.685" gradientUnits="userSpaceOnUse"><stop offset="0" style="stop-color:#f6881f"/><stop offset=".025" style="stop-color:#f38120"/><stop offset=".069" style="stop-color:#ee6c23"/><stop offset=".125" style="stop-color:#e64525"/><stop offset=".138" style="stop-color:#e43825"/><stop offset=".19" style="stop-color:#e75a27"/><stop offset=".256" style="stop-color:#eb762c"/><stop offset=".328" style="stop-color:#ee8b31"/><stop offset=".407" style="stop-color:#f19c35"/><stop offset=".496" style="stop-color:#f4a939"/><stop offset=".6" style="stop-color:#f6b33b"/><stop offset=".734" style="stop-color:#f7b93d"/><stop offset="1" style="stop-color:#f7bb3d"/></linearGradient><path d="M355.99 207.94c-.03-.76-.08-1.51-.14-2.25-7.23-1.26-15.68-3.63-26.32-9.07-11.39-5.83-15.28-15.92-16.96-18.77s-7.28-18.42-9.81-24.92c-2.52-6.51-5.13-5.44-5.13-5.44v18.71c5.64 0 7.95 13.98 11.19 24.21s13.72 12.95 25.24 15.02c9.17 1.64 18.5 2.31 21.93 2.51" style="fill:url(#SVGID_00000004515922317442128950000000343794112844171919_)"/><linearGradient id="SVGID_00000178194373994399399920000012377123731225579944_" x1="297.635" x2="355.988" y1="244.711" y2="244.711" gradientUnits="userSpaceOnUse"><stop offset="0" style="stop-color:#f6881f"/><stop offset=".025" style="stop-color:#f38120"/><stop offset=".069" style="stop-color:#ee6c23"/><stop offset=".125" style="stop-color:#e64525"/><stop offset=".138" style="stop-color:#e43825"/><stop offset=".19" style="stop-color:#e75a27"/><stop offset=".256" style="stop-color:#eb762c"/><stop offset=".328" style="stop-color:#ee8b31"/><stop offset=".407" style="stop-color:#f19c35"/><stop offset=".496" style="stop-color:#f4a939"/><stop offset=".6" style="stop-color:#f6b33b"/><stop offset=".734" style="stop-color:#f7b93d"/><stop offset="1" style="stop-color:#f7bb3d"/></linearGradient><path d="M355.85 216.7c.06-.74.1-1.49.14-2.25-3.43.2-12.76.87-21.92 2.51-11.52 2.07-22.01 4.79-25.24 15.02-3.24 10.23-5.54 24.21-11.19 24.21v18.71s2.61 1.07 5.13-5.44 8.12-22.07 9.81-24.92c1.68-2.85 5.57-12.95 16.96-18.77 10.63-5.44 19.08-7.8 26.31-9.07" style="fill:url(#SVGID_00000178194373994399399920000012377123731225579944_)"/><linearGradient id="SVGID_00000157281665068320752110000014850376163486668197_" x1="239.288" x2="297.64" y1="177.685" y2="177.685" gradientUnits="userSpaceOnUse"><stop offset="0" style="stop-color:#f7bb3d"/><stop offset=".267" style="stop-color:#f7b93d"/><stop offset=".4" style="stop-color:#f6b33b"/><stop offset=".504" style="stop-color:#f4a939"/><stop offset=".593" style="stop-color:#f19c35"/><stop offset=".672" style="stop-color:#ee8b31"/><stop offset=".744" style="stop-color:#eb762c"/><stop offset=".81" style="stop-color:#e75a27"/><stop offset=".862" style="stop-color:#e43825"/><stop offset=".875" style="stop-color:#e64525"/><stop offset=".931" style="stop-color:#ee6c23"/><stop offset=".975" style="stop-color:#f38120"/><stop offset="1" style="stop-color:#f6881f"/></linearGradient><path d="M292.51 152.93c-2.52 6.51-8.12 22.07-9.81 24.92s-5.57 12.95-16.96 18.77c-10.64 5.44-19.09 7.81-26.32 9.07-.06.74-.1 1.49-.14 2.25 3.43-.2 12.76-.87 21.92-2.51 11.52-2.07 22.01-4.79 25.24-15.02 3.24-10.23 5.54-24.21 11.19-24.21v-18.71c.01 0-2.6-1.06-5.12 5.44" style="fill:url(#SVGID_00000157281665068320752110000014850376163486668197_)"/><radialGradient id="SVGID_00000061442079821284398870000011820810623094934157_" cx="49.541" cy="938.077" r="25.991" gradientTransform="matrix(0 -.5204 1.7693 0 -1362.056 236.97)" gradientUnits="userSpaceOnUse"><stop offset="0" style="stop-color:#fff;stop-opacity:0"/><stop offset=".496" style="stop-color:#fff"/><stop offset="1" style="stop-color:#fff;stop-opacity:0"/></radialGradient><path d="M297.72 210.63c25.61 0 46.38.38 46.38.56 0 .25-20.76.56-46.38.56-25.61 0-46.48-.22-46.48-.56 0-.26 20.87-.56 46.48-.56" style="fill:url(#SVGID_00000061442079821284398870000011820810623094934157_)"/><radialGradient id="SVGID_00000124873875112139761670000000240844846870454412_" cx="297.671" cy="211.195" r="17.974" gradientUnits="userSpaceOnUse"><stop offset="0" style="stop-color:#fff;stop-opacity:0"/><stop offset=".496" style="stop-color:#fff"/><stop offset="1" style="stop-color:#fff;stop-opacity:0"/></radialGradient><path d="M297.22 210.71c7.15-7.15 13.26-12.62 13.41-12.47.21.21-5.33 6.26-12.47 13.41-7.15 7.15-13.15 12.79-13.43 12.5-.23-.22 5.34-6.29 12.49-13.44" style="fill:url(#SVGID_00000124873875112139761670000000240844846870454412_)"/><radialGradient id="SVGID_00000129185414893748891820000015574343911177365130_" cx="297.671" cy="211.191" r="21.761" gradientUnits="userSpaceOnUse"><stop offset=".126" style="stop-color:#f7f7fa"/><stop offset=".932" style="stop-color:#f7f7fa;stop-opacity:0"/></radialGradient><circle cx="297.67" cy="211.19" r="21.76" style="fill:url(#SVGID_00000129185414893748891820000015574343911177365130_)"/><radialGradient id="SVGID_00000179643704277302534860000011354755860719846553_" cx="-144.455" cy="1074.266" r="17.974" gradientTransform="rotate(-90 -354.928 421.664)" gradientUnits="userSpaceOnUse"><stop offset="0" style="stop-color:#fff;stop-opacity:0"/><stop offset=".496" style="stop-color:#fff"/><stop offset="1" style="stop-color:#fff;stop-opacity:0"/></radialGradient><path d="M297.19 211.64c-7.15-7.15-12.62-13.26-12.47-13.41.21-.21 6.26 5.33 13.41 12.47s12.79 13.15 12.5 13.43c-.22.23-6.29-5.34-13.44-12.49" style="fill:url(#SVGID_00000179643704277302534860000011354755860719846553_)"/><path d="M290.45 250.33c-.18-2.17-.36-4.29-.61-6.48-.97-3.3-1.89-6.87-2.87-10.17 1.62 6.39 2.05 11.42 2.48 16.73.19 2.3.39 4.68.69 7.18.53 4.37 1.6 8.9 2.49 12.18.73 1.81 1.47 3.01 2.14 3.79-.69-2.21-2.82-9.34-3.64-16.09-.29-2.48-.49-4.85-.68-7.14" class="st26"/><linearGradient id="SVGID_00000057112010842446317470000009659126009059712899_" x1="239.287" x2="297.64" y1="273.055" y2="273.055" gradientUnits="userSpaceOnUse"><stop offset="0" style="stop-color:#f7bb3d"/><stop offset=".267" style="stop-color:#f7b93d"/><stop offset=".4" style="stop-color:#f6b33b"/><stop offset=".504" style="stop-color:#f4a939"/><stop offset=".593" style="stop-color:#f19c35"/><stop offset=".672" style="stop-color:#ee8b31"/><stop offset=".744" style="stop-color:#eb762c"/><stop offset=".81" style="stop-color:#e75a27"/><stop offset=".862" style="stop-color:#e43825"/><stop offset=".875" style="stop-color:#e64525"/><stop offset=".931" style="stop-color:#ee6c23"/><stop offset=".975" style="stop-color:#f38120"/><stop offset="1" style="stop-color:#f6881f"/></linearGradient><path d="M294.46 273.17c-.06-.07-.11-.15-.17-.23.06.08.12.16.17.23" style="fill:url(#SVGID_00000057112010842446317470000009659126009059712899_)"/><linearGradient id="SVGID_00000043437264296326801210000006944648954154683836_" x1="239.287" x2="297.64" y1="272.325" y2="272.325" gradientUnits="userSpaceOnUse"><stop offset="0" style="stop-color:#f7bb3d"/><stop offset=".267" style="stop-color:#f7b93d"/><stop offset=".4" style="stop-color:#f6b33b"/><stop offset=".504" style="stop-color:#f4a939"/><stop offset=".593" style="stop-color:#f19c35"/><stop offset=".672" style="stop-color:#ee8b31"/><stop offset=".744" style="stop-color:#eb762c"/><stop offset=".81" style="stop-color:#e75a27"/><stop offset=".862" style="stop-color:#e43825"/><stop offset=".875" style="stop-color:#e64525"/><stop offset=".931" style="stop-color:#ee6c23"/><stop offset=".975" style="stop-color:#f38120"/><stop offset="1" style="stop-color:#f6881f"/></linearGradient><path d="M294 272.51c-.07-.11-.15-.24-.22-.36.08.12.15.24.22.36" style="fill:url(#SVGID_00000043437264296326801210000006944648954154683836_)"/><linearGradient id="SVGID_00000111169572248730221390000009274139033468183203_" x1="239.287" x2="297.64" y1="271.515" y2="271.515" gradientUnits="userSpaceOnUse"><stop offset="0" style="stop-color:#f7bb3d"/><stop offset=".267" style="stop-color:#f7b93d"/><stop offset=".4" style="stop-color:#f6b33b"/><stop offset=".504" style="stop-color:#f4a939"/><stop offset=".593" style="stop-color:#f19c35"/><stop offset=".672" style="stop-color:#ee8b31"/><stop offset=".744" style="stop-color:#eb762c"/><stop offset=".81" style="stop-color:#e75a27"/><stop offset=".862" style="stop-color:#e43825"/><stop offset=".875" style="stop-color:#e64525"/><stop offset=".931" style="stop-color:#ee6c23"/><stop offset=".975" style="stop-color:#f38120"/><stop offset="1" style="stop-color:#f6881f"/></linearGradient><path d="M293.64 271.9c-.13-.24-.27-.49-.4-.77.13.27.27.53.4.77" style="fill:url(#SVGID_00000111169572248730221390000009274139033468183203_)"/><linearGradient id="SVGID_00000027573402573168869840000013254015790743722647_" x1="297.6" x2="179.853" y1="259.407" y2="259.407" gradientUnits="userSpaceOnUse"><stop offset="0" style="stop-color:#f6881f"/><stop offset=".025" style="stop-color:#f38120"/><stop offset=".069" style="stop-color:#ee6c23"/><stop offset=".125" style="stop-color:#e64525"/><stop offset=".138" style="stop-color:#e43825"/><stop offset=".19" style="stop-color:#e75a27"/><stop offset=".256" style="stop-color:#eb762c"/><stop offset=".328" style="stop-color:#ee8b31"/><stop offset=".407" style="stop-color:#f19c35"/><stop offset=".496" style="stop-color:#f4a939"/><stop offset=".6" style="stop-color:#f6b33b"/><stop offset=".734" style="stop-color:#f7b93d"/><stop offset="1" style="stop-color:#f7bb3d"/></linearGradient><path d="M289.84 243.85c.25 2.19.43 4.31.61 6.48.19 2.29.38 4.66.68 7.14.82 6.75 2.94 13.88 3.64 16.09 1.61 1.86 2.87 1.35 2.87 1.35V256.2c-3.58 0-5.81-5.63-7.8-12.35" style="fill:url(#SVGID_00000027573402573168869840000013254015790743722647_)"/><linearGradient id="SVGID_00000121244560000891309790000009335138094531305392_" x1="291.964" x2="226.766" y1="242.704" y2="242.704" gradientUnits="userSpaceOnUse"><stop offset="0" style="stop-color:#f6881f"/><stop offset=".013" style="stop-color:#f38120"/><stop offset=".036" style="stop-color:#ee6c23"/><stop offset=".065" style="stop-color:#e64525"/><stop offset=".072" style="stop-color:#e43825"/><stop offset=".081" style="stop-color:#e54326"/><stop offset=".118" style="stop-color:#e96429"/><stop offset=".16" style="stop-color:#ec7d2d"/><stop offset=".207" style="stop-color:#ef8f32"/><stop offset=".259" style="stop-color:#f29f36"/><stop offset=".32" style="stop-color:#f4ab39"/><stop offset=".396" style="stop-color:#f6b43c"/><stop offset=".502" style="stop-color:#f7b93d"/><stop offset=".797" style="stop-color:#f7bb3d"/></linearGradient><path d="M290.14 257.59c-.3-2.5-.5-4.88-.69-7.18-.44-5.31-.86-10.35-2.48-16.73.49 1.64.16.45-.52-1.69-3.24-10.23-13.72-12.95-25.24-15.02-9.17-1.65-18.49-2.31-21.92-2.51.03.76.08 1.51.14 2.25 7.23 1.26 15.68 3.63 26.32 9.07 11.39 5.83 15.28 15.92 16.96 18.77s7.28 18.42 9.81 24.92c.22.56.43 1.04.65 1.49-.17-.36-.35-.76-.52-1.18-.9-3.3-1.98-7.82-2.51-12.19" style="fill:url(#SVGID_00000121244560000891309790000009335138094531305392_)"/><path d="M294.77 273.55c-.1-.12-.21-.25-.31-.39.11.15.21.28.31.39m-.47-.61c-.1-.14-.19-.28-.29-.44.09.16.19.31.29.44m-4.46-29.09c-.49-1.66-.96-3.39-1.44-5.11.48 1.72.95 3.45 1.44 5.11m3.94 28.29c-.05-.08-.09-.16-.14-.24.05.08.1.17.14.24m-.54-1.01-.09-.18z" class="st26"/><path d="M290.45 250.33c-.18-2.17-.36-4.29-.61-6.48-.49-1.66-.96-3.38-1.44-5.11-.47-1.71-.94-3.42-1.43-5.06 1.62 6.39 2.05 11.42 2.48 16.73.19 2.3.39 4.68.69 7.18.53 4.37 1.6 8.9 2.49 12.18.17.43.35.82.52 1.18l.09.18c.14.28.27.53.4.77.05.08.09.17.14.24.07.12.15.25.22.36.1.15.2.3.29.44l.17.23c.1.14.21.27.31.39-.69-2.21-2.82-9.34-3.64-16.09-.29-2.48-.49-4.85-.68-7.14" class="st26"/></g></svg>