<?xml version="1.0" encoding="utf-8"?>
<!-- Generator: Adobe Illustrator 26.0.1, SVG Export Plug-In . SVG Version: 6.00 Build 0)  -->
<svg version="1.1" xmlns="http://www.w3.org/2000/svg" xmlns:xlink="http://www.w3.org/1999/xlink" x="0px" y="0px"
	 viewBox="0 0 595.28 420.94" style="enable-background:new 0 0 595.28 420.94;" xml:space="preserve">
<style type="text/css">
	.st0{fill:#CFCDCC;}
	.st1{fill:none;stroke:#3CBFBF;stroke-miterlimit:10;}
	.st2{fill:url(#SVGID_1_);}
	.st3{fill:#3BBFBF;}
	.st4{fill:#133E68;}
	.st5{fill:none;stroke:#3BBFBF;stroke-miterlimit:10;}
	.st6{fill:url(#SVGID_00000143607566247495457840000007977535873239360901_);}
	.st7{fill:url(#SVGID_00000105420275204768192610000014537479116326988185_);}
	.st8{fill:url(#SVGID_00000071522894207675377130000001030742659811532222_);}
	.st9{fill:#1577BA;}
	.st10{fill:url(#SVGID_00000052102317865636327760000012207208004428698807_);}
	.st11{fill:url(#SVGID_00000072281579046351251730000009866398862356753815_);}
	.st12{fill:url(#SVGID_00000047753206571767958320000016483472338388995260_);}
	.st13{fill:#0F6293;}
	.st14{fill:url(#SVGID_00000058565812983926662320000004119021219064709785_);}
	.st15{fill:url(#SVGID_00000095302600043691674750000018279587434013825439_);}
	.st16{fill:url(#SVGID_00000158713318323466769970000009353567183320859327_);}
	.st17{fill:url(#SVGID_00000121984227066667228960000007132550582468150186_);}
	.st18{fill:url(#SVGID_00000181058349404520457030000016415418525976788126_);}
	.st19{fill:url(#SVGID_00000108266952897023841890000014060322184901937085_);}
	.st20{fill:url(#SVGID_00000165227799145029904950000017731641539379951034_);}
	.st21{fill:url(#SVGID_00000154403966861404400650000007425166164418235792_);}
	.st22{fill:url(#SVGID_00000104679674575797937920000001211484081685109391_);}
	.st23{fill:url(#SVGID_00000174597454902162069110000009612626260634639241_);}
	.st24{fill:url(#SVGID_00000028287373008401609950000002425730078215240327_);}
	.st25{fill:url(#SVGID_00000055699726704669842610000013022114784531168155_);}
	.st26{fill:#FFFFFF;}
	.st27{fill:url(#SVGID_00000067953544360574078350000017861926753327387796_);}
	.st28{fill:url(#SVGID_00000041284046173687901310000001741205786572986276_);}
	.st29{fill:url(#SVGID_00000053508635862977920440000004841709057192708783_);}
	.st30{fill:url(#SVGID_00000179634014971967714010000012644842894512225152_);}
	.st31{fill:url(#SVGID_00000000200932758454631270000005399399960017340324_);}
	.st32{fill:url(#SVGID_00000064333161664824006570000005729986389463344034_);}
	.st33{fill:url(#SVGID_00000015356804669524875730000003852285064362585512_);}
	.st34{fill:url(#SVGID_00000084498059601970203540000007405564179627980687_);}
	.st35{fill:url(#SVGID_00000067226685588731396410000012463482537908818086_);}
	.st36{fill:url(#SVGID_00000055706793934751740610000015101124874025972919_);}
	.st37{fill:url(#SVGID_00000139252145316398663590000011964510724884000418_);}
	.st38{fill:url(#SVGID_00000056416202185802554490000017379588159603047305_);}
	.st39{fill:url(#SVGID_00000026882356374873697860000012566608030926460558_);}
	.st40{fill:url(#SVGID_00000131336677849283277610000015367201273449997956_);}
	.st41{fill:url(#SVGID_00000126310171888341033680000009055776842043554968_);}
	.st42{fill:url(#SVGID_00000126286089489494537750000008152337891561805203_);}
	.st43{fill:url(#SVGID_00000098203610940182905430000009338997387172840598_);}
	.st44{fill:url(#SVGID_00000034797882499623287160000015003672982209662344_);}
	.st45{fill:url(#SVGID_00000021097311612918354150000016054581156396419224_);}
	.st46{fill:url(#SVGID_00000018214888989995769870000017203962037373412753_);}
	.st47{fill:url(#SVGID_00000182519315502693833550000013254752635514564515_);}
	.st48{fill:url(#SVGID_00000012430478879564473250000001329538004588315054_);}
	.st49{fill:url(#SVGID_00000122002101539153559410000010062178323153806011_);}
	.st50{fill:url(#SVGID_00000084526020291210975260000008456482710576500151_);}
	.st51{fill:url(#SVGID_00000070081182791154355900000010402189927291387026_);}
	.st52{fill:url(#SVGID_00000013882353866764437670000005787656456962461098_);}
	.st53{fill:url(#SVGID_00000026125452697046706790000009198785384752254613_);}
	.st54{fill:url(#SVGID_00000091694301362373285100000017581070210855169200_);}
	.st55{fill:#1F3465;}
	.st56{fill:url(#SVGID_00000069372610633531527580000005848767393000664192_);}
	.st57{fill:url(#SVGID_00000134219715978123783890000005787378462065886611_);}
	.st58{fill:url(#SVGID_00000077309627734922055850000012654377471625088666_);}
	.st59{fill:url(#SVGID_00000078752071481478235250000012640424557792938133_);}
	.st60{fill:url(#SVGID_00000108307048277540553250000003779933501208837539_);}
	.st61{fill:url(#SVGID_00000093155056088234865230000007096114653666752907_);}
	.st62{fill:url(#SVGID_00000023241184840448962120000004383439844185560994_);}
	.st63{fill:url(#SVGID_00000077287413611235569410000011674524060123426486_);}
	.st64{fill:url(#SVGID_00000018954549867064902490000007397226686494202044_);}
	.st65{fill:url(#SVGID_00000086662039512959762340000007969222955299895995_);}
	.st66{fill:url(#SVGID_00000179642752664701130550000011953650410971611553_);}
	.st67{fill:url(#SVGID_00000021800600369260202540000002965334553950861959_);}
	.st68{fill:url(#SVGID_00000111894660135849194240000001058163622838916796_);}
	.st69{fill:url(#SVGID_00000055685140331764143490000009917923181274691969_);}
	.st70{fill:url(#SVGID_00000100341171230631059240000013757517047668931499_);}
	.st71{fill:url(#SVGID_00000039844114475371446740000006829212435847793840_);}
	.st72{fill:url(#SVGID_00000123427258663666871130000000947870194403965069_);}
	.st73{fill:url(#SVGID_00000111165135865629189260000003292777316627345829_);}
	.st74{fill:url(#SVGID_00000110439979019976270620000002514908298960118174_);}
	.st75{fill:url(#SVGID_00000011714554796161314400000016477358255086132149_);}
	.st76{fill:url(#SVGID_00000157272918007962839010000001580581683019611819_);}
	.st77{fill:url(#SVGID_00000146462046688779540630000013073690215681590708_);}
	.st78{fill:url(#SVGID_00000172429895649060759930000015047868647928310205_);}
	.st79{fill:url(#SVGID_00000006696259312386973180000018312278797139704714_);}
	.st80{fill:url(#SVGID_00000063595096858628759760000011123161419872124600_);}
	.st81{fill:url(#SVGID_00000007412459240573375490000014001353520889116815_);}
	.st82{fill:url(#SVGID_00000170971749116281707840000013551957937121359038_);}
	.st83{fill:url(#SVGID_00000014600754088977484450000013838216814571504040_);}
	.st84{fill:url(#SVGID_00000167367733208143205980000017807991324731643790_);}
	.st85{fill:url(#SVGID_00000146501904896164149700000013167818080231550644_);}
	.st86{fill:url(#SVGID_00000123411175710888039540000003586760475792316341_);}
	.st87{fill:url(#SVGID_00000060744986168356795900000016609347119860607922_);}
	.st88{fill:url(#SVGID_00000056419801553281693180000015334468835573450942_);}
	.st89{fill:url(#SVGID_00000082354296353666494600000001171520221968214424_);}
	.st90{fill:url(#SVGID_00000158722755374603293510000003333062761856299680_);}
	.st91{fill:url(#SVGID_00000078024940103367993660000015996848616742143678_);}
	.st92{fill:url(#SVGID_00000084498375481662976560000011590482522860912533_);}
	.st93{fill:url(#SVGID_00000054257131434013676090000004666365471772919179_);}
	.st94{fill:url(#SVGID_00000077292724200969674750000001848013751680082307_);}
	.st95{fill:url(#SVGID_00000064316602284827001730000009835718807525684650_);}
	.st96{fill:url(#SVGID_00000107550067601420469420000011774174118432129439_);}
	.st97{fill:url(#SVGID_00000036218036899166806920000012963879305647523253_);}
	.st98{fill:url(#SVGID_00000095310741869082688640000002091309188824094904_);}
	.st99{fill:url(#SVGID_00000120516593182788558970000007988387429221980301_);}
	.st100{fill:url(#SVGID_00000134938885833975177200000001171072973392317352_);}
	.st101{fill:url(#SVGID_00000079470125244498652060000009646310155536523404_);}
	.st102{display:none;}
	.st103{display:inline;}
</style>
<g id="Layer_1">
	<g>
		<g>
			<g>
				<path class="st3" d="M451.22,130.09c-70.49,0.97-112.63,20.2-112.63,20.2c48.16-9.71,90.68-7.57,107.38-5.24
					s31.07,8.38,20.39,35.92c-3.73,9.62-8.21,19.08-13.18,28.29h2.28v20.46c16.18-21.75,23.91-36.52,23.91-36.52
					S521.71,129.11,451.22,130.09z"/>
				<path class="st3" d="M434.55,250.09v-10.5c-33.45,48.81-74.08,84.42-74.08,84.42c33.7-24.69,59.81-51.23,78.87-73.92H434.55z"/>
			</g>
			<g>
				<path class="st3" d="M163.32,172.3v5.31c32.91-46.87,71.48-80.68,71.48-80.68c-34.42,25.22-60.93,52.37-80.08,75.37H163.32z"/>
				<path class="st3" d="M149.3,275.91c-16.7-2.33-31.07-8.38-20.39-35.92c3.48-8.97,7.61-17.81,12.19-26.43h-0.79l5.75-30.52
					c-20.44,26.15-30.16,44.71-30.16,44.71s-42.33,64.08,28.16,63.11c70.49-0.97,112.63-20.2,112.63-20.2
					C208.52,280.37,166,278.24,149.3,275.91z"/>
			</g>
			<path class="st4" d="M200.63,105.74c0,0-68.35,35.73-110.3,77.67s12.96,71.46,12.96,71.46s-15.55-17.09-6.49-40.65
				S130.2,160.89,200.63,105.74z"/>
			<linearGradient id="SVGID_1_" gradientUnits="userSpaceOnUse" x1="141.0173" y1="165.0278" x2="141.0173" y2="260.1791">
				<stop  offset="0" style="stop-color:#8B8D8C"/>
				<stop  offset="0.2682" style="stop-color:#F7F7FA"/>
				<stop  offset="0.5019" style="stop-color:#5D605E"/>
				<stop  offset="0.7058" style="stop-color:#CACACF"/>
				<stop  offset="1" style="stop-color:#8B8D8C"/>
			</linearGradient>
			<path class="st2" d="M142.64,211.2c0-15.41,3.95-29.27,10.23-38.89c-0.96-0.26-1.94-0.4-2.94-0.4
				c-11.47,0-20.77,17.59-20.77,39.29c0,21.7,9.3,39.29,20.77,39.29c1,0,1.98-0.14,2.94-0.4
				C146.58,240.47,142.64,226.61,142.64,211.2z"/>
			
				<linearGradient id="SVGID_00000004537127620311181650000010077842525319201983_" gradientUnits="userSpaceOnUse" x1="213.4245" y1="160.7557" x2="213.4245" y2="272.261">
				<stop  offset="0" style="stop-color:#8B8D8C"/>
				<stop  offset="0.2682" style="stop-color:#F7F7FA"/>
				<stop  offset="0.5019" style="stop-color:#5D605E"/>
				<stop  offset="0.7058" style="stop-color:#CACACF"/>
				<stop  offset="1" style="stop-color:#8B8D8C"/>
			</linearGradient>
			<path style="fill:url(#SVGID_00000004537127620311181650000010077842525319201983_);" d="M234.25,247.12
				c-1.61-3.02-3.01-6.37-4.18-9.99c-2.47-7.66-3.89-16.5-3.89-25.93s1.42-18.28,3.89-25.93c1.17-3.62,2.57-6.97,4.18-9.99
				c3.42-6.43,7.74-11.35,12.62-14.13h-25.83h-7.85h-0.7h-10.83c-12.57,6.85-21.66,26.67-21.66,50.05c0,23.39,9.09,43.2,21.66,50.05
				h10.83h0.7h7.85h25.83C241.99,258.47,237.67,253.55,234.25,247.12z"/>
			
				<linearGradient id="SVGID_00000006694263546794545350000003860779668578585777_" gradientUnits="userSpaceOnUse" x1="169.9295" y1="161.6387" x2="169.9295" y2="258.6599">
				<stop  offset="0" style="stop-color:#102845"/>
				<stop  offset="0.2682" style="stop-color:#257AB9"/>
				<stop  offset="0.4972" style="stop-color:#113558"/>
				<stop  offset="0.7058" style="stop-color:#144578"/>
				<stop  offset="1" style="stop-color:#0C1E34"/>
			</linearGradient>
			<path style="fill:url(#SVGID_00000006694263546794545350000003860779668578585777_);" d="M171.43,211.2
				c0-21.78,7.88-40.45,19.12-48.45h-22.83c-11.22,8.01-19.1,26.69-19.1,48.45c0,22.21,8.2,41.19,19.79,48.92h22.81
				C179.64,252.39,171.43,233.41,171.43,211.2z"/>
			<path class="st9" d="M277.25,252.26c-1.68-3.99-3.55-6.8-5.5-9.11c-1.38-1.63-2.79-3.02-4.2-4.37
				c-6.86-6.6-21.85-9.68-21.85-9.68l2.14,8.06c6.65,1.53,12.31,5.89,17.05,11.44c2.38,2.78,4.52,5.86,6.43,9.03
				c8.34,13.85,12.28,29.44,12.28,29.44C282.5,269.63,280.17,259.19,277.25,252.26z"/>
			<path class="st9" d="M271.32,164.77c-1.91,3.17-4.06,6.25-6.43,9.03c-4.73,5.54-10.4,9.91-17.05,11.44l-2.14,8.06
				c0,0,14.98-3.07,21.85-9.68c1.41-1.36,2.82-2.74,4.2-4.37c1.95-2.31,3.82-5.12,5.5-9.11c2.92-6.93,5.24-17.37,6.35-34.8
				C283.61,135.33,279.66,150.91,271.32,164.77z"/>
			<path class="st4" d="M394.65,315.21c0,0,68.35-35.73,110.3-77.67s-12.96-71.46-12.96-71.46s15.55,17.09,6.49,40.65
				S465.07,260.06,394.65,315.21z"/>
			
				<linearGradient id="SVGID_00000157292872361705325920000009255416782953812103_" gradientUnits="userSpaceOnUse" x1="454.2582" y1="165.0278" x2="454.2582" y2="260.1791">
				<stop  offset="0" style="stop-color:#8B8D8C"/>
				<stop  offset="0.2682" style="stop-color:#F7F7FA"/>
				<stop  offset="0.5019" style="stop-color:#5D605E"/>
				<stop  offset="0.7058" style="stop-color:#CACACF"/>
				<stop  offset="1" style="stop-color:#8B8D8C"/>
			</linearGradient>
			<path style="fill:url(#SVGID_00000157292872361705325920000009255416782953812103_);" d="M452.64,211.2
				c0-15.41-3.95-29.27-10.23-38.89c0.96-0.26,1.94-0.4,2.94-0.4c11.47,0,20.77,17.59,20.77,39.29c0,21.7-9.3,39.29-20.77,39.29
				c-1,0-1.98-0.14-2.94-0.4C448.69,240.47,452.64,226.61,452.64,211.2z"/>
			
				<linearGradient id="SVGID_00000007404240400420412230000017333598502755068092_" gradientUnits="userSpaceOnUse" x1="381.851" y1="160.7557" x2="381.851" y2="272.261">
				<stop  offset="0" style="stop-color:#8B8D8C"/>
				<stop  offset="0.2682" style="stop-color:#F7F7FA"/>
				<stop  offset="0.5019" style="stop-color:#5D605E"/>
				<stop  offset="0.7058" style="stop-color:#CACACF"/>
				<stop  offset="1" style="stop-color:#8B8D8C"/>
			</linearGradient>
			<path style="fill:url(#SVGID_00000007404240400420412230000017333598502755068092_);" d="M361.03,247.12
				c1.61-3.02,3.01-6.37,4.18-9.99c2.47-7.66,3.89-16.5,3.89-25.93s-1.42-18.28-3.89-25.93c-1.17-3.62-2.57-6.97-4.18-9.99
				c-3.42-6.43-7.74-11.35-12.62-14.13h25.83h7.85h0.7h10.83c12.57,6.85,21.66,26.67,21.66,50.05c0,23.39-9.09,43.2-21.66,50.05
				h-10.83h-0.7h-7.85h-25.83C353.29,258.47,357.61,253.55,361.03,247.12z"/>
			
				<linearGradient id="SVGID_00000165229631866154688540000012277658076867377027_" gradientUnits="userSpaceOnUse" x1="425.346" y1="161.6387" x2="425.346" y2="258.6599">
				<stop  offset="0" style="stop-color:#102845"/>
				<stop  offset="0.2682" style="stop-color:#257AB9"/>
				<stop  offset="0.4972" style="stop-color:#113558"/>
				<stop  offset="0.7058" style="stop-color:#144578"/>
				<stop  offset="1" style="stop-color:#0C1E34"/>
			</linearGradient>
			<path style="fill:url(#SVGID_00000165229631866154688540000012277658076867377027_);" d="M423.84,211.2
				c0-21.78-7.88-40.45-19.12-48.45h22.83c11.22,8.01,19.1,26.69,19.1,48.45c0,22.21-8.2,41.19-19.79,48.92h-22.81
				C415.64,252.39,423.84,233.41,423.84,211.2z"/>
			<path class="st9" d="M318.02,252.26c1.68-3.99,3.55-6.8,5.5-9.11c1.38-1.63,2.79-3.02,4.2-4.37c6.86-6.6,21.85-9.68,21.85-9.68
				l-2.14,8.06c-6.65,1.53-12.31,5.89-17.05,11.44c-2.38,2.78-4.52,5.86-6.43,9.03c-8.34,13.85-12.28,29.44-12.28,29.44
				C312.78,269.63,315.11,259.19,318.02,252.26z"/>
			<path class="st9" d="M323.95,164.77c1.91,3.17,4.06,6.25,6.43,9.03c4.73,5.54,10.4,9.91,17.05,11.44l2.14,8.06
				c0,0-14.98-3.07-21.85-9.68c-1.41-1.36-2.82-2.74-4.2-4.37c-1.95-2.31-3.82-5.12-5.5-9.11c-2.92-6.93-5.24-17.37-6.35-34.8
				C311.67,135.33,315.61,150.91,323.95,164.77z"/>
			<path class="st13" d="M339.63,208.61c-7.64-0.58-17.93-3.56-17.93-3.56c-13.27-5.31-13.85-9.58-17.35-23.37
				c-3.46-13.66-6.66-12.83-6.72-12.82c-0.06-0.02-3.25-0.85-6.72,12.82c-3.5,13.79-4.08,18.06-17.35,23.37
				c0,0-10.29,2.98-17.93,3.56c0,0-4.47,0.26-4.47,2.59c0,2.33,4.47,2.59,4.47,2.59c7.64,0.58,17.93,3.56,17.93,3.56
				c13.27,5.31,13.85,9.58,17.35,23.37c3.46,13.66,6.66,12.83,6.72,12.82c0.06,0.02,3.25,0.85,6.72-12.82
				c3.5-13.79,4.08-18.06,17.35-23.37c0,0,10.29-2.98,17.93-3.56c0,0,4.47-0.26,4.47-2.59C344.1,208.87,339.63,208.61,339.63,208.61
				z"/>
			
				<radialGradient id="SVGID_00000029046072385642907720000007877491029283679901_" cx="899.1832" cy="238.9933" r="25.9908" gradientTransform="matrix(0.5204 0 0 1.6136 -170.2349 -174.4376)" gradientUnits="userSpaceOnUse">
				<stop  offset="0" style="stop-color:#FFFFFF;stop-opacity:0"/>
				<stop  offset="0.4959" style="stop-color:#FFFFFF"/>
				<stop  offset="1" style="stop-color:#FFFFFF;stop-opacity:0"/>
			</radialGradient>
			<path style="fill:url(#SVGID_00000029046072385642907720000007877491029283679901_);" d="M298.23,211.24
				c0,23.36-0.38,42.29-0.56,42.29c-0.25,0-0.56-18.94-0.56-42.29s0.22-42.39,0.56-42.39C297.93,168.85,298.23,187.88,298.23,211.24
				z"/>
			
				<radialGradient id="SVGID_00000052095670588345394530000016141603053148006824_" cx="297.6708" cy="211.1907" r="20.2764" gradientUnits="userSpaceOnUse">
				<stop  offset="0" style="stop-color:#F7F7FA"/>
				<stop  offset="0.9318" style="stop-color:#F7F7FA;stop-opacity:0"/>
			</radialGradient>
			<circle style="fill:url(#SVGID_00000052095670588345394530000016141603053148006824_);" cx="297.67" cy="211.19" r="20.28"/>
			
				<linearGradient id="SVGID_00000127761196082729815660000017304405437715185073_" gradientUnits="userSpaceOnUse" x1="248.8323" y1="160.3673" x2="248.8323" y2="251.2972">
				<stop  offset="0" style="stop-color:#565658"/>
				<stop  offset="0.3365" style="stop-color:#F7F7FA"/>
				<stop  offset="1" style="stop-color:#606461"/>
			</linearGradient>
			<path style="fill:url(#SVGID_00000127761196082729815660000017304405437715185073_);" d="M267.14,251.42
				c-0.73-0.97-1.47-1.91-2.25-2.82c-1.53,0.65-3.11,1-4.75,1c-11.56,0-20.93-17.19-20.93-38.4s9.37-38.4,20.93-38.4
				c1.63,0,3.22,0.35,4.75,1c0.89-1.05,1.74-2.15,2.57-3.26c-0.04-0.2-1.46-9.78-9.11-9.29c-15.7,1.55-28.15,23.32-28.15,49.96
				c0,27.43,13.2,49.69,29.55,50.04C263.35,260.89,265.88,257.99,267.14,251.42z"/>
			
				<linearGradient id="SVGID_00000032622990920443055700000011351071547789350056_" gradientUnits="userSpaceOnUse" x1="346.4433" y1="160.3673" x2="346.4433" y2="251.2972">
				<stop  offset="0" style="stop-color:#8B8D8C"/>
				<stop  offset="0.2682" style="stop-color:#F7F7FA"/>
				<stop  offset="0.5019" style="stop-color:#5D605E"/>
				<stop  offset="0.7058" style="stop-color:#CACACF"/>
				<stop  offset="1" style="stop-color:#8B8D8C"/>
			</linearGradient>
			<path style="fill:url(#SVGID_00000032622990920443055700000011351071547789350056_);" d="M328.14,251.42
				c0.73-0.97,1.47-1.91,2.25-2.82c1.53,0.65,3.11,1,4.75,1c11.56,0,20.93-17.19,20.93-38.4s-9.37-38.4-20.93-38.4
				c-1.63,0-3.22,0.35-4.75,1c-0.89-1.05-1.74-2.15-2.57-3.26c0.04-0.2,1.46-9.78,9.11-9.29c15.7,1.55,28.15,23.32,28.15,49.96
				c0,27.43-13.2,49.69-29.55,50.04C331.93,260.89,329.39,257.99,328.14,251.42z"/>
			
				<linearGradient id="SVGID_00000140702062290216783950000007713213262350078133_" gradientUnits="userSpaceOnUse" x1="248.8323" y1="160.3673" x2="248.8323" y2="251.2972">
				<stop  offset="0" style="stop-color:#8B8D8C"/>
				<stop  offset="0.2682" style="stop-color:#F7F7FA"/>
				<stop  offset="0.5019" style="stop-color:#5D605E"/>
				<stop  offset="0.7058" style="stop-color:#CACACF"/>
				<stop  offset="1" style="stop-color:#8B8D8C"/>
			</linearGradient>
			<path style="fill:url(#SVGID_00000140702062290216783950000007713213262350078133_);" d="M267.14,251.42
				c-0.73-0.97-1.47-1.91-2.25-2.82c-1.53,0.65-3.11,1-4.75,1c-11.56,0-20.93-17.19-20.93-38.4s9.37-38.4,20.93-38.4
				c1.63,0,3.22,0.35,4.75,1c0.89-1.05,1.74-2.15,2.57-3.26c-0.04-0.2-1.46-9.78-9.11-9.29c-15.7,1.55-28.15,23.32-28.15,49.96
				c0,27.43,13.2,49.69,29.55,50.04C263.35,260.89,265.88,257.99,267.14,251.42z"/>
			
				<linearGradient id="SVGID_00000004515922317442128950000000343794112844171919_" gradientUnits="userSpaceOnUse" x1="297.6351" y1="177.6845" x2="355.988" y2="177.6845">
				<stop  offset="0" style="stop-color:#F6881F"/>
				<stop  offset="0.0254" style="stop-color:#F38120"/>
				<stop  offset="0.0688" style="stop-color:#EE6C23"/>
				<stop  offset="0.1246" style="stop-color:#E64525"/>
				<stop  offset="0.1378" style="stop-color:#E43825"/>
				<stop  offset="0.1901" style="stop-color:#E75A27"/>
				<stop  offset="0.2556" style="stop-color:#EB762C"/>
				<stop  offset="0.3278" style="stop-color:#EE8B31"/>
				<stop  offset="0.4069" style="stop-color:#F19C35"/>
				<stop  offset="0.4958" style="stop-color:#F4A939"/>
				<stop  offset="0.5999" style="stop-color:#F6B33B"/>
				<stop  offset="0.7335" style="stop-color:#F7B93D"/>
				<stop  offset="1" style="stop-color:#F7BB3D"/>
			</linearGradient>
			<path style="fill:url(#SVGID_00000004515922317442128950000000343794112844171919_);" d="M355.99,207.94
				c-0.03-0.76-0.08-1.51-0.14-2.25c-7.23-1.26-15.68-3.63-26.32-9.07c-11.39-5.83-15.28-15.92-16.96-18.77s-7.28-18.42-9.81-24.92
				c-2.52-6.51-5.13-5.44-5.13-5.44v18.71c5.64,0,7.95,13.98,11.19,24.21c3.24,10.23,13.72,12.95,25.24,15.02
				C343.23,207.07,352.56,207.74,355.99,207.94z"/>
			
				<linearGradient id="SVGID_00000178194373994399399920000012377123731225579944_" gradientUnits="userSpaceOnUse" x1="297.6351" y1="244.7114" x2="355.988" y2="244.7114">
				<stop  offset="0" style="stop-color:#F6881F"/>
				<stop  offset="0.0254" style="stop-color:#F38120"/>
				<stop  offset="0.0688" style="stop-color:#EE6C23"/>
				<stop  offset="0.1246" style="stop-color:#E64525"/>
				<stop  offset="0.1378" style="stop-color:#E43825"/>
				<stop  offset="0.1901" style="stop-color:#E75A27"/>
				<stop  offset="0.2556" style="stop-color:#EB762C"/>
				<stop  offset="0.3278" style="stop-color:#EE8B31"/>
				<stop  offset="0.4069" style="stop-color:#F19C35"/>
				<stop  offset="0.4958" style="stop-color:#F4A939"/>
				<stop  offset="0.5999" style="stop-color:#F6B33B"/>
				<stop  offset="0.7335" style="stop-color:#F7B93D"/>
				<stop  offset="1" style="stop-color:#F7BB3D"/>
			</linearGradient>
			<path style="fill:url(#SVGID_00000178194373994399399920000012377123731225579944_);" d="M355.85,216.7
				c0.06-0.74,0.1-1.49,0.14-2.25c-3.43,0.2-12.76,0.87-21.92,2.51c-11.52,2.07-22.01,4.79-25.24,15.02
				c-3.24,10.23-5.54,24.21-11.19,24.21v18.71c0,0,2.61,1.07,5.13-5.44c2.52-6.51,8.12-22.07,9.81-24.92
				c1.68-2.85,5.57-12.95,16.96-18.77C340.17,220.33,348.62,217.97,355.85,216.7z"/>
			
				<linearGradient id="SVGID_00000157281665068320752110000014850376163486668197_" gradientUnits="userSpaceOnUse" x1="239.2876" y1="177.6845" x2="297.6405" y2="177.6845">
				<stop  offset="0" style="stop-color:#F7BB3D"/>
				<stop  offset="0.2665" style="stop-color:#F7B93D"/>
				<stop  offset="0.4001" style="stop-color:#F6B33B"/>
				<stop  offset="0.5042" style="stop-color:#F4A939"/>
				<stop  offset="0.5931" style="stop-color:#F19C35"/>
				<stop  offset="0.6722" style="stop-color:#EE8B31"/>
				<stop  offset="0.7444" style="stop-color:#EB762C"/>
				<stop  offset="0.8099" style="stop-color:#E75A27"/>
				<stop  offset="0.8622" style="stop-color:#E43825"/>
				<stop  offset="0.8754" style="stop-color:#E64525"/>
				<stop  offset="0.9312" style="stop-color:#EE6C23"/>
				<stop  offset="0.9746" style="stop-color:#F38120"/>
				<stop  offset="1" style="stop-color:#F6881F"/>
			</linearGradient>
			<path style="fill:url(#SVGID_00000157281665068320752110000014850376163486668197_);" d="M292.51,152.93
				c-2.52,6.51-8.12,22.07-9.81,24.92s-5.57,12.95-16.96,18.77c-10.64,5.44-19.09,7.81-26.32,9.07c-0.06,0.74-0.1,1.49-0.14,2.25
				c3.43-0.2,12.76-0.87,21.92-2.51c11.52-2.07,22.01-4.79,25.24-15.02c3.24-10.23,5.54-24.21,11.19-24.21v-18.71
				C297.64,147.49,295.03,146.43,292.51,152.93z"/>
			
				<radialGradient id="SVGID_00000061442079821284398870000011820810623094934157_" cx="49.5413" cy="938.0766" r="25.9908" gradientTransform="matrix(0 -0.5204 1.7693 0 -1362.0563 236.9704)" gradientUnits="userSpaceOnUse">
				<stop  offset="0" style="stop-color:#FFFFFF;stop-opacity:0"/>
				<stop  offset="0.4959" style="stop-color:#FFFFFF"/>
				<stop  offset="1" style="stop-color:#FFFFFF;stop-opacity:0"/>
			</radialGradient>
			<path style="fill:url(#SVGID_00000061442079821284398870000011820810623094934157_);" d="M297.72,210.63
				c25.61,0,46.38,0.38,46.38,0.56c0,0.25-20.76,0.56-46.38,0.56c-25.61,0-46.48-0.22-46.48-0.56
				C251.24,210.93,272.11,210.63,297.72,210.63z"/>
			
				<radialGradient id="SVGID_00000124873875112139761670000000240844846870454412_" cx="297.6706" cy="211.195" r="17.9743" gradientUnits="userSpaceOnUse">
				<stop  offset="0" style="stop-color:#FFFFFF;stop-opacity:0"/>
				<stop  offset="0.4959" style="stop-color:#FFFFFF"/>
				<stop  offset="1" style="stop-color:#FFFFFF;stop-opacity:0"/>
			</radialGradient>
			<path style="fill:url(#SVGID_00000124873875112139761670000000240844846870454412_);" d="M297.22,210.71
				c7.15-7.15,13.26-12.62,13.41-12.47c0.21,0.21-5.33,6.26-12.47,13.41c-7.15,7.15-13.15,12.79-13.43,12.5
				C284.5,223.93,290.07,217.86,297.22,210.71z"/>
			
				<radialGradient id="SVGID_00000129185414893748891820000015574343911177365130_" cx="297.6708" cy="211.1907" r="21.7614" gradientUnits="userSpaceOnUse">
				<stop  offset="0.1261" style="stop-color:#F7F7FA"/>
				<stop  offset="0.9318" style="stop-color:#F7F7FA;stop-opacity:0"/>
			</radialGradient>
			<circle style="fill:url(#SVGID_00000129185414893748891820000015574343911177365130_);" cx="297.67" cy="211.19" r="21.76"/>
			
				<radialGradient id="SVGID_00000179643704277302534860000011354755860719846553_" cx="-144.4554" cy="1074.266" r="17.9743" gradientTransform="matrix(0 -1 1 0 -776.5915 66.7361)" gradientUnits="userSpaceOnUse">
				<stop  offset="0" style="stop-color:#FFFFFF;stop-opacity:0"/>
				<stop  offset="0.4959" style="stop-color:#FFFFFF"/>
				<stop  offset="1" style="stop-color:#FFFFFF;stop-opacity:0"/>
			</radialGradient>
			<path style="fill:url(#SVGID_00000179643704277302534860000011354755860719846553_);" d="M297.19,211.64
				c-7.15-7.15-12.62-13.26-12.47-13.41c0.21-0.21,6.26,5.33,13.41,12.47s12.79,13.15,12.5,13.43
				C310.41,224.36,304.34,218.79,297.19,211.64z"/>
			<path class="st26" d="M290.45,250.33c-0.18-2.17-0.36-4.29-0.61-6.48c-0.97-3.3-1.89-6.87-2.87-10.17
				c1.62,6.39,2.05,11.42,2.48,16.73c0.19,2.3,0.39,4.68,0.69,7.18c0.53,4.37,1.6,8.9,2.49,12.18c0.73,1.81,1.47,3.01,2.14,3.79
				c-0.69-2.21-2.82-9.34-3.64-16.09C290.84,254.99,290.64,252.62,290.45,250.33z"/>
			
				<linearGradient id="SVGID_00000057112010842446317470000009659126009059712899_" gradientUnits="userSpaceOnUse" x1="239.2875" y1="273.0551" x2="297.6405" y2="273.0551">
				<stop  offset="0" style="stop-color:#F7BB3D"/>
				<stop  offset="0.2665" style="stop-color:#F7B93D"/>
				<stop  offset="0.4001" style="stop-color:#F6B33B"/>
				<stop  offset="0.5042" style="stop-color:#F4A939"/>
				<stop  offset="0.5931" style="stop-color:#F19C35"/>
				<stop  offset="0.6722" style="stop-color:#EE8B31"/>
				<stop  offset="0.7444" style="stop-color:#EB762C"/>
				<stop  offset="0.8099" style="stop-color:#E75A27"/>
				<stop  offset="0.8622" style="stop-color:#E43825"/>
				<stop  offset="0.8754" style="stop-color:#E64525"/>
				<stop  offset="0.9312" style="stop-color:#EE6C23"/>
				<stop  offset="0.9746" style="stop-color:#F38120"/>
				<stop  offset="1" style="stop-color:#F6881F"/>
			</linearGradient>
			<path style="fill:url(#SVGID_00000057112010842446317470000009659126009059712899_);" d="M294.46,273.17
				c-0.06-0.07-0.11-0.15-0.17-0.23C294.35,273.02,294.41,273.1,294.46,273.17z"/>
			
				<linearGradient id="SVGID_00000043437264296326801210000006944648954154683836_" gradientUnits="userSpaceOnUse" x1="239.2875" y1="272.3251" x2="297.6405" y2="272.3251">
				<stop  offset="0" style="stop-color:#F7BB3D"/>
				<stop  offset="0.2665" style="stop-color:#F7B93D"/>
				<stop  offset="0.4001" style="stop-color:#F6B33B"/>
				<stop  offset="0.5042" style="stop-color:#F4A939"/>
				<stop  offset="0.5931" style="stop-color:#F19C35"/>
				<stop  offset="0.6722" style="stop-color:#EE8B31"/>
				<stop  offset="0.7444" style="stop-color:#EB762C"/>
				<stop  offset="0.8099" style="stop-color:#E75A27"/>
				<stop  offset="0.8622" style="stop-color:#E43825"/>
				<stop  offset="0.8754" style="stop-color:#E64525"/>
				<stop  offset="0.9312" style="stop-color:#EE6C23"/>
				<stop  offset="0.9746" style="stop-color:#F38120"/>
				<stop  offset="1" style="stop-color:#F6881F"/>
			</linearGradient>
			<path style="fill:url(#SVGID_00000043437264296326801210000006944648954154683836_);" d="M294,272.51
				c-0.07-0.11-0.15-0.24-0.22-0.36C293.86,272.27,293.93,272.39,294,272.51z"/>
			
				<linearGradient id="SVGID_00000111169572248730221390000009274139033468183203_" gradientUnits="userSpaceOnUse" x1="239.2875" y1="271.5147" x2="297.6405" y2="271.5147">
				<stop  offset="0" style="stop-color:#F7BB3D"/>
				<stop  offset="0.2665" style="stop-color:#F7B93D"/>
				<stop  offset="0.4001" style="stop-color:#F6B33B"/>
				<stop  offset="0.5042" style="stop-color:#F4A939"/>
				<stop  offset="0.5931" style="stop-color:#F19C35"/>
				<stop  offset="0.6722" style="stop-color:#EE8B31"/>
				<stop  offset="0.7444" style="stop-color:#EB762C"/>
				<stop  offset="0.8099" style="stop-color:#E75A27"/>
				<stop  offset="0.8622" style="stop-color:#E43825"/>
				<stop  offset="0.8754" style="stop-color:#E64525"/>
				<stop  offset="0.9312" style="stop-color:#EE6C23"/>
				<stop  offset="0.9746" style="stop-color:#F38120"/>
				<stop  offset="1" style="stop-color:#F6881F"/>
			</linearGradient>
			<path style="fill:url(#SVGID_00000111169572248730221390000009274139033468183203_);" d="M293.64,271.9
				c-0.13-0.24-0.27-0.49-0.4-0.77C293.37,271.4,293.51,271.66,293.64,271.9z"/>
			
				<linearGradient id="SVGID_00000027573402573168869840000013254015790743722647_" gradientUnits="userSpaceOnUse" x1="297.6001" y1="259.4069" x2="179.8535" y2="259.4069">
				<stop  offset="0" style="stop-color:#F6881F"/>
				<stop  offset="0.0254" style="stop-color:#F38120"/>
				<stop  offset="0.0688" style="stop-color:#EE6C23"/>
				<stop  offset="0.1246" style="stop-color:#E64525"/>
				<stop  offset="0.1378" style="stop-color:#E43825"/>
				<stop  offset="0.1901" style="stop-color:#E75A27"/>
				<stop  offset="0.2556" style="stop-color:#EB762C"/>
				<stop  offset="0.3278" style="stop-color:#EE8B31"/>
				<stop  offset="0.4069" style="stop-color:#F19C35"/>
				<stop  offset="0.4958" style="stop-color:#F4A939"/>
				<stop  offset="0.5999" style="stop-color:#F6B33B"/>
				<stop  offset="0.7335" style="stop-color:#F7B93D"/>
				<stop  offset="1" style="stop-color:#F7BB3D"/>
			</linearGradient>
			<path style="fill:url(#SVGID_00000027573402573168869840000013254015790743722647_);" d="M289.84,243.85
				c0.25,2.19,0.43,4.31,0.61,6.48c0.19,2.29,0.38,4.66,0.68,7.14c0.82,6.75,2.94,13.88,3.64,16.09c1.61,1.86,2.87,1.35,2.87,1.35
				V256.2C294.06,256.2,291.83,250.57,289.84,243.85z"/>
			
				<linearGradient id="SVGID_00000121244560000891309790000009335138094531305392_" gradientUnits="userSpaceOnUse" x1="291.9642" y1="242.7041" x2="226.7658" y2="242.7041">
				<stop  offset="0" style="stop-color:#F6881F"/>
				<stop  offset="0.0133" style="stop-color:#F38120"/>
				<stop  offset="0.036" style="stop-color:#EE6C23"/>
				<stop  offset="0.0652" style="stop-color:#E64525"/>
				<stop  offset="0.0721" style="stop-color:#E43825"/>
				<stop  offset="0.0808" style="stop-color:#E54326"/>
				<stop  offset="0.1182" style="stop-color:#E96429"/>
				<stop  offset="0.1602" style="stop-color:#EC7D2D"/>
				<stop  offset="0.2067" style="stop-color:#EF8F32"/>
				<stop  offset="0.2592" style="stop-color:#F29F36"/>
				<stop  offset="0.3204" style="stop-color:#F4AB39"/>
				<stop  offset="0.3962" style="stop-color:#F6B43C"/>
				<stop  offset="0.5025" style="stop-color:#F7B93D"/>
				<stop  offset="0.7975" style="stop-color:#F7BB3D"/>
			</linearGradient>
			<path style="fill:url(#SVGID_00000121244560000891309790000009335138094531305392_);" d="M290.14,257.59
				c-0.3-2.5-0.5-4.88-0.69-7.18c-0.44-5.31-0.86-10.35-2.48-16.73c0.49,1.64,0.16,0.45-0.52-1.69
				c-3.24-10.23-13.72-12.95-25.24-15.02c-9.17-1.65-18.49-2.31-21.92-2.51c0.03,0.76,0.08,1.51,0.14,2.25
				c7.23,1.26,15.68,3.63,26.32,9.07c11.39,5.83,15.28,15.92,16.96,18.77c1.68,2.85,7.28,18.42,9.81,24.92
				c0.22,0.56,0.43,1.04,0.65,1.49c-0.17-0.36-0.35-0.76-0.52-1.18C291.75,266.48,290.67,261.96,290.14,257.59z"/>
			<path class="st26" d="M294.77,273.55L294.77,273.55c-0.1-0.12-0.21-0.25-0.31-0.39C294.57,273.31,294.67,273.44,294.77,273.55z"
				/>
			<path class="st26" d="M294.3,272.94c-0.1-0.14-0.19-0.28-0.29-0.44C294.1,272.66,294.2,272.81,294.3,272.94z"/>
			<path class="st26" d="M289.84,243.85c-0.49-1.66-0.96-3.39-1.44-5.11C288.88,240.46,289.35,242.19,289.84,243.85
				C289.84,243.85,289.84,243.85,289.84,243.85z"/>
			<path class="st26" d="M293.78,272.14c-0.05-0.08-0.09-0.16-0.14-0.24C293.69,271.98,293.74,272.07,293.78,272.14z"/>
			<path class="st26" d="M293.24,271.13c-0.03-0.06-0.06-0.12-0.09-0.18C293.18,271.01,293.21,271.07,293.24,271.13z"/>
			<path class="st26" d="M290.45,250.33c-0.18-2.17-0.36-4.29-0.61-6.48c-0.49-1.66-0.96-3.38-1.44-5.11
				c-0.47-1.71-0.94-3.42-1.43-5.06c1.62,6.39,2.05,11.42,2.48,16.73c0.19,2.3,0.39,4.68,0.69,7.18c0.53,4.37,1.6,8.9,2.49,12.18
				c0.17,0.43,0.35,0.82,0.52,1.18c0.03,0.06,0.06,0.12,0.09,0.18c0.14,0.28,0.27,0.53,0.4,0.77c0.05,0.08,0.09,0.17,0.14,0.24
				c0.07,0.12,0.15,0.25,0.22,0.36c0.1,0.15,0.2,0.3,0.29,0.44c0.06,0.08,0.11,0.15,0.17,0.23c0.1,0.14,0.21,0.27,0.31,0.39
				c-0.69-2.21-2.82-9.34-3.64-16.09C290.84,254.99,290.64,252.62,290.45,250.33z"/>
		</g>
	</g>
</g>
<g id="Layer_2" class="st102">
</g>
</svg>
