<?xml version="1.0" encoding="utf-8"?>
<!-- Generator: Adobe Illustrator 26.0.1, SVG Export Plug-In . SVG Version: 6.00 Build 0)  -->
<svg version="1.1" xmlns="http://www.w3.org/2000/svg" xmlns:xlink="http://www.w3.org/1999/xlink" x="0px" y="0px"
	 viewBox="0 0 595.28 408.07" style="enable-background:new 0 0 595.28 408.07;" xml:space="preserve">
<style type="text/css">
	.st0{fill:#CFCDCC;}
	.st1{fill:none;stroke:#3CBFBF;stroke-miterlimit:10;}
	.st2{fill:url(#SVGID_1_);}
	.st3{fill:#3BBFBF;}
	.st4{fill:#133E68;}
	.st5{fill:none;stroke:#3BBFBF;stroke-miterlimit:10;}
	.st6{fill:url(#SVGID_00000021799667154195172730000000146274318446264509_);}
	.st7{fill:url(#SVGID_00000114791242340125020480000007564991984688862356_);}
	.st8{fill:url(#SVGID_00000029742969612267516740000014824026655347118476_);}
	.st9{fill:#1577BA;}
	.st10{fill:url(#SVGID_00000090982684676146548430000008389791903868366266_);}
	.st11{fill:url(#SVGID_00000022560578657398411890000007104268423925391294_);}
	.st12{fill:url(#SVGID_00000092439306517225526540000016507641813055503505_);}
	.st13{fill:#0F6293;}
	.st14{fill:url(#SVGID_00000047772026021656445260000010787567017583063459_);}
	.st15{fill:url(#SVGID_00000024709640754961751070000008236682668468615079_);}
	.st16{fill:url(#SVGID_00000036209111475960869680000007513785859631183036_);}
	.st17{fill:url(#SVGID_00000101786177757942178520000001386932838424816296_);}
	.st18{fill:url(#SVGID_00000165220018523451090320000005686241146024864409_);}
	.st19{fill:url(#SVGID_00000031903802043660238900000007934429794390697856_);}
	.st20{fill:url(#SVGID_00000165212282379322093630000006204072323070519479_);}
	.st21{fill:url(#SVGID_00000180329343037564690140000000113116233870727567_);}
	.st22{fill:url(#SVGID_00000130621248918707276010000009650986322480718500_);}
	.st23{fill:url(#SVGID_00000027585154432240871460000017166346140186531519_);}
	.st24{fill:url(#SVGID_00000163790641257827965830000014225412320323002800_);}
	.st25{fill:url(#SVGID_00000090994911488633499520000007601605228186071681_);}
	.st26{fill:#FFFFFF;}
	.st27{fill:url(#SVGID_00000083806692726490771630000012663331749183731588_);}
	.st28{fill:url(#SVGID_00000155827417509979664290000003479340012186796678_);}
	.st29{fill:url(#SVGID_00000023247342192463376670000014862819875107368331_);}
	.st30{fill:url(#SVGID_00000108297952604812250080000008478254504033519776_);}
	.st31{fill:url(#SVGID_00000147906444684967981450000006381071159539070899_);}
	.st32{fill:url(#SVGID_00000155119491913787073120000003282086318170980224_);}
	.st33{fill:url(#SVGID_00000067942857618227591060000014246849380981702052_);}
	.st34{fill:url(#SVGID_00000031906359969827454170000018145628673332044432_);}
	.st35{fill:url(#SVGID_00000090982726357129169330000017297780469375249332_);}
	.st36{fill:url(#SVGID_00000169550085111238733310000015566135456670178235_);}
	.st37{fill:url(#SVGID_00000052070356126591940610000014421614672938417339_);}
	.st38{fill:url(#SVGID_00000072267460269936940060000002640785058951904939_);}
	.st39{fill:url(#SVGID_00000104664792228588097070000009983928831152886144_);}
	.st40{fill:url(#SVGID_00000085945584605756236430000006119451981255296165_);}
	.st41{fill:url(#SVGID_00000047033243752577690500000014842956771049105287_);}
	.st42{fill:url(#SVGID_00000160153930392700052630000001576746605030806443_);}
	.st43{fill:url(#SVGID_00000064326679935940352170000010581237848396813484_);}
	.st44{fill:url(#SVGID_00000115488950278268472170000009924209166369915805_);}
	.st45{fill:url(#SVGID_00000149340216176431150560000014480745310958245529_);}
	.st46{fill:url(#SVGID_00000117667315770830888140000009314755164085466536_);}
	.st47{fill:url(#SVGID_00000160869189275048444320000013904323954609506449_);}
	.st48{fill:url(#SVGID_00000017481562091491365800000012082133727354306186_);}
	.st49{fill:url(#SVGID_00000078002435428365848400000017726878493393391548_);}
	.st50{fill:url(#SVGID_00000103985410785057120920000013651505047324091575_);}
	.st51{fill:url(#SVGID_00000056405671565535795600000014539097262268097700_);}
	.st52{fill:url(#SVGID_00000174563293216475336650000004986258963875086722_);}
	.st53{fill:url(#SVGID_00000156579626913634173820000004077564469401651343_);}
	.st54{fill:url(#SVGID_00000052077026781402001870000005112098450414440892_);}
	.st55{fill:#010101;}
	.st56{font-family:'Pragmatica-ExtraLight';}
	.st57{font-size:55.5014px;}
	.st58{fill:#1F3465;}
	.st59{fill:url(#SVGID_00000049929409459877320890000004186053384076803263_);}
	.st60{fill:url(#SVGID_00000056387437225373625340000018313708149695226814_);}
	.st61{fill:url(#SVGID_00000123429480738033372430000008132369952015702703_);}
	.st62{fill:url(#SVGID_00000009571463953394095940000010878594213646284420_);}
	.st63{fill:url(#SVGID_00000099654965169098584490000006099068699872127150_);}
	.st64{fill:url(#SVGID_00000021802831457601790200000003999630345221125787_);}
	.st65{fill:url(#SVGID_00000134929211837865640190000007590407831546546856_);}
	.st66{fill:url(#SVGID_00000074414754720731881910000017938960752559503006_);}
	.st67{fill:url(#SVGID_00000032634633306961222220000000079290339542998924_);}
	.st68{fill:url(#SVGID_00000106834925834674301980000005382280645174927745_);}
	.st69{fill:url(#SVGID_00000020397639369269527400000001239884416572868795_);}
	.st70{fill:url(#SVGID_00000160163303395688044830000011741700394968534145_);}
	.st71{fill:url(#SVGID_00000163045579072409566130000016728540088971644087_);}
	.st72{fill:url(#SVGID_00000041978733858565353900000004067808690542083213_);}
	.st73{fill:url(#SVGID_00000182490739705824723270000013014320137412428699_);}
	.st74{fill:url(#SVGID_00000003078243896746302150000001004604395917900465_);}
	.st75{fill:url(#SVGID_00000010269207352340864200000016121643029283194796_);}
	.st76{fill:url(#SVGID_00000080905669851200926490000011609296134951737524_);}
	.st77{fill:url(#SVGID_00000182493596043654679790000016179063993068890791_);}
	.st78{fill:url(#SVGID_00000104668233274517227950000004114663517707469195_);}
	.st79{fill:url(#SVGID_00000109745280015972936400000013789931678861388169_);}
	.st80{fill:url(#SVGID_00000060022833702173226410000015607546460351477397_);}
	.st81{fill:url(#SVGID_00000155825556311363757970000001210978481508167074_);}
	.st82{fill:url(#SVGID_00000051353903631846934110000007604248863248374402_);}
	.st83{fill:url(#SVGID_00000145048293261286441960000005281596247655948471_);}
	.st84{fill:url(#SVGID_00000119833233907836833040000016384921128114000316_);}
	.st85{fill:url(#SVGID_00000031201851264066469470000013507837356631189127_);}
	.st86{fill:url(#SVGID_00000080196968076758253900000008150678220157403784_);}
	.st87{fill:url(#SVGID_00000118364491507579071380000009261413959142228139_);}
	.st88{fill:url(#SVGID_00000084518370415812081630000017535668608071723912_);}
	.st89{fill:url(#SVGID_00000010278041150096257920000001810902893983189407_);}
	.st90{fill:url(#SVGID_00000149365528430110079060000001658153893411094914_);}
	.st91{fill:url(#SVGID_00000052101547544820950700000012366963672765370042_);}
	.st92{fill:url(#SVGID_00000105411181112165735040000016548610144101376148_);}
	.st93{fill:url(#SVGID_00000097492255133466653900000014179811879773374871_);}
	.st94{fill:url(#SVGID_00000048491246117182448750000013193237516355879095_);}
	.st95{fill:url(#SVGID_00000085246303745817589330000017814987679286058941_);}
	.st96{fill:url(#SVGID_00000075850613172740308720000003688095024577547176_);}
	.st97{fill:url(#SVGID_00000148658263439797530500000018412656600585411504_);}
	.st98{fill:url(#SVGID_00000145753275704927631900000008324444292224885146_);}
	.st99{fill:url(#SVGID_00000132083391294637045380000009791489516114938285_);}
	.st100{fill:url(#SVGID_00000103961076580240244300000011537867264435137166_);}
	.st101{fill:url(#SVGID_00000104680276009604257890000014378221194242625211_);}
	.st102{fill:url(#SVGID_00000103259390536803316090000010184424629719311034_);}
	.st103{fill:url(#SVGID_00000183245359618420351300000000112353166932382597_);}
	.st104{fill:url(#SVGID_00000183949504143117838070000014692118619427476412_);}
	.st105{display:none;}
	.st106{display:inline;}
</style>
<g id="Layer_1">
	<g>
		<g>
			<text transform="matrix(1.0669 0 0 1 303.4558 362.6315)" class="st55 st56 st57">Fusion</text>
			<path class="st58" d="M197.32,330.61c0,0-5.15-3.83-14.51-3.83c-8.11,0-11.61,2.66-11.61,6.22c0,4.33,3.73,6.05,11.78,7.27
				c11.13,1.72,16.46,3.77,16.46,10.82c0,6.22-5.15,11.54-17.11,11.54c-13.27,0-18-5.44-18-5.44l2.66-3.83c0,0,5.21,4.94,15.34,4.94
				c7.28,0,11.37-2.44,11.37-6.44c0-4.05-2.07-5.33-11.43-6.94c-10.72-1.83-16.82-4.05-16.82-11.38c0-5.77,5.09-11.32,17.23-11.32
				c10.6,0,16.58,4.05,16.58,4.05L197.32,330.61z"/>
			<path class="st58" d="M251.73,351.87v-28.92h5.21v27.19c0,4.05,3.28,7.33,7.33,7.33h18.61v4.33h-21.22
				C256.18,361.8,251.73,357.35,251.73,351.87z"/>
			<path class="st58" d="M226.39,322.95h-18.24v38.85h5.21v-11.54v-4.33v-0.95v-17.7h13.03c7.28,0,10.78,3.16,10.78,9.82
				c0,6.11-3.61,8.82-10.78,8.82h-8.3v4.33h8.3c10.01,0,16.17-4.16,16.17-13.15C242.56,327.45,236.4,322.95,226.39,322.95z"/>
			<polygon class="st58" points="144.02,322.95 138.51,322.95 121.69,361.8 127.2,361.8 127.62,360.84 132.81,348.69 133.88,346.31 
				134.27,345.41 141.24,329.33 148.94,347.09 138.78,347.09 138.71,347.27 138.33,348.13 136.89,351.42 150.83,351.42 
				155.33,361.8 160.84,361.8 			"/>
		</g>
		<g>
			<g>
				<path class="st3" d="M451.22,99.75c-70.49,0.97-112.63,20.2-112.63,20.2c48.16-9.71,90.68-7.57,107.38-5.24
					s31.07,8.38,20.39,35.92c-3.73,9.62-8.21,19.08-13.18,28.29h2.28v20.46c16.18-21.75,23.91-36.52,23.91-36.52
					S521.71,98.78,451.22,99.75z"/>
				<path class="st3" d="M434.55,219.76v-10.5c-33.45,48.81-74.08,84.42-74.08,84.42c33.7-24.69,59.81-51.23,78.87-73.92H434.55z"/>
			</g>
			<g>
				<path class="st3" d="M163.32,141.97v5.31C196.24,100.4,234.8,66.6,234.8,66.6c-34.42,25.22-60.93,52.37-80.08,75.37H163.32z"/>
				<path class="st3" d="M149.3,245.58c-16.7-2.33-31.07-8.38-20.39-35.92c3.48-8.97,7.61-17.81,12.19-26.43h-0.79l5.75-30.52
					c-20.44,26.15-30.16,44.71-30.16,44.71s-42.33,64.08,28.16,63.11c70.49-0.97,112.63-20.2,112.63-20.2
					C208.52,250.04,166,247.91,149.3,245.58z"/>
			</g>
			<path class="st4" d="M200.63,75.41c0,0-68.35,35.73-110.3,77.67s12.96,71.46,12.96,71.46s-15.55-17.09-6.49-40.65
				S130.2,130.55,200.63,75.41z"/>
			<linearGradient id="SVGID_1_" gradientUnits="userSpaceOnUse" x1="141.0173" y1="134.6964" x2="141.0173" y2="229.8477">
				<stop  offset="0" style="stop-color:#8B8D8C"/>
				<stop  offset="0.2682" style="stop-color:#F7F7FA"/>
				<stop  offset="0.5019" style="stop-color:#5D605E"/>
				<stop  offset="0.7058" style="stop-color:#CACACF"/>
				<stop  offset="1" style="stop-color:#8B8D8C"/>
			</linearGradient>
			<path class="st2" d="M142.64,180.87c0-15.41,3.95-29.27,10.23-38.89c-0.96-0.26-1.94-0.4-2.94-0.4
				c-11.47,0-20.77,17.59-20.77,39.29c0,21.7,9.3,39.29,20.77,39.29c1,0,1.98-0.14,2.94-0.4
				C146.58,210.14,142.64,196.28,142.64,180.87z"/>
			
				<linearGradient id="SVGID_00000088817597424877558030000012305923888008501925_" gradientUnits="userSpaceOnUse" x1="213.4245" y1="130.4243" x2="213.4245" y2="241.9296">
				<stop  offset="0" style="stop-color:#8B8D8C"/>
				<stop  offset="0.2682" style="stop-color:#F7F7FA"/>
				<stop  offset="0.5019" style="stop-color:#5D605E"/>
				<stop  offset="0.7058" style="stop-color:#CACACF"/>
				<stop  offset="1" style="stop-color:#8B8D8C"/>
			</linearGradient>
			<path style="fill:url(#SVGID_00000088817597424877558030000012305923888008501925_);" d="M234.25,216.79
				c-1.61-3.02-3.01-6.37-4.18-9.99c-2.47-7.66-3.89-16.5-3.89-25.93s1.42-18.28,3.89-25.93c1.17-3.62,2.57-6.97,4.18-9.99
				c3.42-6.43,7.74-11.35,12.62-14.13h-25.83h-7.85h-0.7h-10.83c-12.57,6.85-21.66,26.67-21.66,50.05c0,23.39,9.09,43.2,21.66,50.05
				h10.83h0.7h7.85h25.83C241.99,228.14,237.67,223.22,234.25,216.79z"/>
			
				<linearGradient id="SVGID_00000178199162071866994580000005370235568514076050_" gradientUnits="userSpaceOnUse" x1="169.9295" y1="131.3073" x2="169.9295" y2="228.3286">
				<stop  offset="0" style="stop-color:#102845"/>
				<stop  offset="0.2682" style="stop-color:#257AB9"/>
				<stop  offset="0.4972" style="stop-color:#113558"/>
				<stop  offset="0.7058" style="stop-color:#144578"/>
				<stop  offset="1" style="stop-color:#0C1E34"/>
			</linearGradient>
			<path style="fill:url(#SVGID_00000178199162071866994580000005370235568514076050_);" d="M171.43,180.87
				c0-21.78,7.88-40.45,19.12-48.45h-22.83c-11.22,8.01-19.1,26.69-19.1,48.45c0,22.21,8.2,41.19,19.79,48.92h22.81
				C179.64,222.06,171.43,203.08,171.43,180.87z"/>
			<path class="st9" d="M277.25,221.93c-1.68-3.99-3.55-6.8-5.5-9.11c-1.38-1.63-2.79-3.02-4.2-4.37
				c-6.86-6.6-21.85-9.68-21.85-9.68l2.14,8.06c6.65,1.53,12.31,5.89,17.05,11.44c2.38,2.78,4.52,5.86,6.43,9.03
				c8.34,13.85,12.28,29.44,12.28,29.44C282.5,239.3,280.17,228.85,277.25,221.93z"/>
			<path class="st9" d="M271.32,134.44c-1.91,3.17-4.06,6.25-6.43,9.03c-4.73,5.54-10.4,9.91-17.05,11.44l-2.14,8.06
				c0,0,14.98-3.07,21.85-9.68c1.41-1.36,2.82-2.74,4.2-4.37c1.95-2.31,3.82-5.12,5.5-9.11c2.92-6.93,5.24-17.37,6.35-34.8
				C283.61,105,279.66,120.58,271.32,134.44z"/>
			<path class="st4" d="M394.65,284.88c0,0,68.35-35.73,110.3-77.67s-12.96-71.46-12.96-71.46s15.55,17.09,6.49,40.65
				S465.07,229.73,394.65,284.88z"/>
			
				<linearGradient id="SVGID_00000064348256021038364560000017756497595910279608_" gradientUnits="userSpaceOnUse" x1="454.2582" y1="134.6964" x2="454.2582" y2="229.8477">
				<stop  offset="0" style="stop-color:#8B8D8C"/>
				<stop  offset="0.2682" style="stop-color:#F7F7FA"/>
				<stop  offset="0.5019" style="stop-color:#5D605E"/>
				<stop  offset="0.7058" style="stop-color:#CACACF"/>
				<stop  offset="1" style="stop-color:#8B8D8C"/>
			</linearGradient>
			<path style="fill:url(#SVGID_00000064348256021038364560000017756497595910279608_);" d="M452.64,180.87
				c0-15.41-3.95-29.27-10.23-38.89c0.96-0.26,1.94-0.4,2.94-0.4c11.47,0,20.77,17.59,20.77,39.29c0,21.7-9.3,39.29-20.77,39.29
				c-1,0-1.98-0.14-2.94-0.4C448.69,210.14,452.64,196.28,452.64,180.87z"/>
			
				<linearGradient id="SVGID_00000131334902973409901960000015786065575844486788_" gradientUnits="userSpaceOnUse" x1="381.851" y1="130.4243" x2="381.851" y2="241.9296">
				<stop  offset="0" style="stop-color:#8B8D8C"/>
				<stop  offset="0.2682" style="stop-color:#F7F7FA"/>
				<stop  offset="0.5019" style="stop-color:#5D605E"/>
				<stop  offset="0.7058" style="stop-color:#CACACF"/>
				<stop  offset="1" style="stop-color:#8B8D8C"/>
			</linearGradient>
			<path style="fill:url(#SVGID_00000131334902973409901960000015786065575844486788_);" d="M361.03,216.79
				c1.61-3.02,3.01-6.37,4.18-9.99c2.47-7.66,3.89-16.5,3.89-25.93s-1.42-18.28-3.89-25.93c-1.17-3.62-2.57-6.97-4.18-9.99
				c-3.42-6.43-7.74-11.35-12.62-14.13h25.83h7.85h0.7h10.83c12.57,6.85,21.66,26.67,21.66,50.05c0,23.39-9.09,43.2-21.66,50.05
				h-10.83h-0.7h-7.85h-25.83C353.29,228.14,357.61,223.22,361.03,216.79z"/>
			
				<linearGradient id="SVGID_00000129165663064140543390000000373128655662229647_" gradientUnits="userSpaceOnUse" x1="425.346" y1="131.3073" x2="425.346" y2="228.3286">
				<stop  offset="0" style="stop-color:#102845"/>
				<stop  offset="0.2682" style="stop-color:#257AB9"/>
				<stop  offset="0.4972" style="stop-color:#113558"/>
				<stop  offset="0.7058" style="stop-color:#144578"/>
				<stop  offset="1" style="stop-color:#0C1E34"/>
			</linearGradient>
			<path style="fill:url(#SVGID_00000129165663064140543390000000373128655662229647_);" d="M423.84,180.87
				c0-21.78-7.88-40.45-19.12-48.45h22.83c11.22,8.01,19.1,26.69,19.1,48.45c0,22.21-8.2,41.19-19.79,48.92h-22.81
				C415.64,222.06,423.84,203.08,423.84,180.87z"/>
			<path class="st9" d="M318.02,221.93c1.68-3.99,3.55-6.8,5.5-9.11c1.38-1.63,2.79-3.02,4.2-4.37c6.86-6.6,21.85-9.68,21.85-9.68
				l-2.14,8.06c-6.65,1.53-12.31,5.89-17.05,11.44c-2.38,2.78-4.52,5.86-6.43,9.03c-8.34,13.85-12.28,29.44-12.28,29.44
				C312.78,239.3,315.11,228.85,318.02,221.93z"/>
			<path class="st9" d="M323.95,134.44c1.91,3.17,4.06,6.25,6.43,9.03c4.73,5.54,10.4,9.91,17.05,11.44l2.14,8.06
				c0,0-14.98-3.07-21.85-9.68c-1.41-1.36-2.82-2.74-4.2-4.37c-1.95-2.31-3.82-5.12-5.5-9.11c-2.92-6.93-5.24-17.37-6.35-34.8
				C311.67,105,315.61,120.58,323.95,134.44z"/>
			<path class="st13" d="M339.63,178.28c-7.64-0.58-17.93-3.56-17.93-3.56c-13.27-5.31-13.85-9.58-17.35-23.37
				c-3.46-13.66-6.66-12.83-6.72-12.82c-0.06-0.02-3.25-0.85-6.72,12.82c-3.5,13.79-4.08,18.06-17.35,23.37
				c0,0-10.29,2.98-17.93,3.56c0,0-4.47,0.26-4.47,2.59c0,2.33,4.47,2.59,4.47,2.59c7.64,0.58,17.93,3.56,17.93,3.56
				c13.27,5.31,13.85,9.58,17.35,23.37c3.46,13.66,6.66,12.83,6.72,12.82c0.06,0.02,3.25,0.85,6.72-12.82
				c3.5-13.79,4.08-18.06,17.35-23.37c0,0,10.29-2.98,17.93-3.56c0,0,4.47-0.26,4.47-2.59C344.1,178.54,339.63,178.28,339.63,178.28
				z"/>
			
				<radialGradient id="SVGID_00000152256738789928899130000004845414118871679415_" cx="297.6732" cy="212.6733" r="25.9908" gradientTransform="matrix(0.5204 0 0 1.6136 142.7713 -162.3002)" gradientUnits="userSpaceOnUse">
				<stop  offset="0" style="stop-color:#FFFFFF;stop-opacity:0"/>
				<stop  offset="0.4959" style="stop-color:#FFFFFF"/>
				<stop  offset="1" style="stop-color:#FFFFFF;stop-opacity:0"/>
			</radialGradient>
			<path style="fill:url(#SVGID_00000152256738789928899130000004845414118871679415_);" d="M298.23,180.91
				c0,23.36-0.38,42.29-0.56,42.29c-0.25,0-0.56-18.94-0.56-42.29s0.22-42.39,0.56-42.39C297.93,138.52,298.23,157.55,298.23,180.91
				z"/>
			
				<radialGradient id="SVGID_00000183251340282925503520000008764648903328061107_" cx="297.6708" cy="180.8593" r="20.2764" gradientUnits="userSpaceOnUse">
				<stop  offset="0" style="stop-color:#F7F7FA"/>
				<stop  offset="0.9318" style="stop-color:#F7F7FA;stop-opacity:0"/>
			</radialGradient>
			<circle style="fill:url(#SVGID_00000183251340282925503520000008764648903328061107_);" cx="297.67" cy="180.86" r="20.28"/>
			
				<linearGradient id="SVGID_00000094611064192830741820000011037520263451885225_" gradientUnits="userSpaceOnUse" x1="248.8323" y1="130.036" x2="248.8323" y2="220.9658">
				<stop  offset="0" style="stop-color:#565658"/>
				<stop  offset="0.3365" style="stop-color:#F7F7FA"/>
				<stop  offset="1" style="stop-color:#606461"/>
			</linearGradient>
			<path style="fill:url(#SVGID_00000094611064192830741820000011037520263451885225_);" d="M267.14,221.09
				c-0.73-0.97-1.47-1.91-2.25-2.82c-1.53,0.65-3.11,1-4.75,1c-11.56,0-20.93-17.19-20.93-38.4s9.37-38.4,20.93-38.4
				c1.63,0,3.22,0.35,4.75,1c0.89-1.05,1.74-2.15,2.57-3.26c-0.04-0.2-1.46-9.78-9.11-9.29c-15.7,1.55-28.15,23.32-28.15,49.96
				c0,27.43,13.2,49.69,29.55,50.04C263.35,230.56,265.88,227.66,267.14,221.09z"/>
			
				<linearGradient id="SVGID_00000177464726708573466430000005890849894751147953_" gradientUnits="userSpaceOnUse" x1="346.4433" y1="130.036" x2="346.4433" y2="220.9658">
				<stop  offset="0" style="stop-color:#8B8D8C"/>
				<stop  offset="0.2682" style="stop-color:#F7F7FA"/>
				<stop  offset="0.5019" style="stop-color:#5D605E"/>
				<stop  offset="0.7058" style="stop-color:#CACACF"/>
				<stop  offset="1" style="stop-color:#8B8D8C"/>
			</linearGradient>
			<path style="fill:url(#SVGID_00000177464726708573466430000005890849894751147953_);" d="M328.14,221.09
				c0.73-0.97,1.47-1.91,2.25-2.82c1.53,0.65,3.11,1,4.75,1c11.56,0,20.93-17.19,20.93-38.4s-9.37-38.4-20.93-38.4
				c-1.63,0-3.22,0.35-4.75,1c-0.89-1.05-1.74-2.15-2.57-3.26c0.04-0.2,1.46-9.78,9.11-9.29c15.7,1.55,28.15,23.32,28.15,49.96
				c0,27.43-13.2,49.69-29.55,50.04C331.93,230.56,329.39,227.66,328.14,221.09z"/>
			
				<linearGradient id="SVGID_00000014612007689021113840000012803893039278842532_" gradientUnits="userSpaceOnUse" x1="248.8323" y1="130.036" x2="248.8323" y2="220.9658">
				<stop  offset="0" style="stop-color:#8B8D8C"/>
				<stop  offset="0.2682" style="stop-color:#F7F7FA"/>
				<stop  offset="0.5019" style="stop-color:#5D605E"/>
				<stop  offset="0.7058" style="stop-color:#CACACF"/>
				<stop  offset="1" style="stop-color:#8B8D8C"/>
			</linearGradient>
			<path style="fill:url(#SVGID_00000014612007689021113840000012803893039278842532_);" d="M267.14,221.09
				c-0.73-0.97-1.47-1.91-2.25-2.82c-1.53,0.65-3.11,1-4.75,1c-11.56,0-20.93-17.19-20.93-38.4s9.37-38.4,20.93-38.4
				c1.63,0,3.22,0.35,4.75,1c0.89-1.05,1.74-2.15,2.57-3.26c-0.04-0.2-1.46-9.78-9.11-9.29c-15.7,1.55-28.15,23.32-28.15,49.96
				c0,27.43,13.2,49.69,29.55,50.04C263.35,230.56,265.88,227.66,267.14,221.09z"/>
			
				<linearGradient id="SVGID_00000116952490745668499070000004227258764157286033_" gradientUnits="userSpaceOnUse" x1="297.6351" y1="147.3531" x2="355.988" y2="147.3531">
				<stop  offset="0" style="stop-color:#F6881F"/>
				<stop  offset="0.0254" style="stop-color:#F38120"/>
				<stop  offset="0.0688" style="stop-color:#EE6C23"/>
				<stop  offset="0.1246" style="stop-color:#E64525"/>
				<stop  offset="0.1378" style="stop-color:#E43825"/>
				<stop  offset="0.1901" style="stop-color:#E75A27"/>
				<stop  offset="0.2556" style="stop-color:#EB762C"/>
				<stop  offset="0.3278" style="stop-color:#EE8B31"/>
				<stop  offset="0.4069" style="stop-color:#F19C35"/>
				<stop  offset="0.4958" style="stop-color:#F4A939"/>
				<stop  offset="0.5999" style="stop-color:#F6B33B"/>
				<stop  offset="0.7335" style="stop-color:#F7B93D"/>
				<stop  offset="1" style="stop-color:#F7BB3D"/>
			</linearGradient>
			<path style="fill:url(#SVGID_00000116952490745668499070000004227258764157286033_);" d="M355.99,177.61
				c-0.03-0.76-0.08-1.51-0.14-2.25c-7.23-1.26-15.68-3.63-26.32-9.07c-11.39-5.83-15.28-15.92-16.96-18.77s-7.28-18.42-9.81-24.92
				c-2.52-6.51-5.13-5.44-5.13-5.44v18.71c5.64,0,7.95,13.98,11.19,24.21c3.24,10.23,13.72,12.95,25.24,15.02
				C343.23,176.74,352.56,177.41,355.99,177.61z"/>
			
				<linearGradient id="SVGID_00000018932240981825969460000012461023143299341467_" gradientUnits="userSpaceOnUse" x1="297.6351" y1="214.38" x2="355.988" y2="214.38">
				<stop  offset="0" style="stop-color:#F6881F"/>
				<stop  offset="0.0254" style="stop-color:#F38120"/>
				<stop  offset="0.0688" style="stop-color:#EE6C23"/>
				<stop  offset="0.1246" style="stop-color:#E64525"/>
				<stop  offset="0.1378" style="stop-color:#E43825"/>
				<stop  offset="0.1901" style="stop-color:#E75A27"/>
				<stop  offset="0.2556" style="stop-color:#EB762C"/>
				<stop  offset="0.3278" style="stop-color:#EE8B31"/>
				<stop  offset="0.4069" style="stop-color:#F19C35"/>
				<stop  offset="0.4958" style="stop-color:#F4A939"/>
				<stop  offset="0.5999" style="stop-color:#F6B33B"/>
				<stop  offset="0.7335" style="stop-color:#F7B93D"/>
				<stop  offset="1" style="stop-color:#F7BB3D"/>
			</linearGradient>
			<path style="fill:url(#SVGID_00000018932240981825969460000012461023143299341467_);" d="M355.85,186.37
				c0.06-0.74,0.1-1.49,0.14-2.25c-3.43,0.2-12.76,0.87-21.92,2.51c-11.52,2.07-22.01,4.79-25.24,15.02
				c-3.24,10.23-5.54,24.21-11.19,24.21v18.71c0,0,2.61,1.07,5.13-5.44c2.52-6.51,8.12-22.07,9.81-24.92
				c1.68-2.85,5.57-12.95,16.96-18.77C340.17,190,348.62,187.63,355.85,186.37z"/>
			
				<linearGradient id="SVGID_00000008148425465506120970000004572283100090759100_" gradientUnits="userSpaceOnUse" x1="239.2876" y1="147.3531" x2="297.6405" y2="147.3531">
				<stop  offset="0" style="stop-color:#F7BB3D"/>
				<stop  offset="0.2665" style="stop-color:#F7B93D"/>
				<stop  offset="0.4001" style="stop-color:#F6B33B"/>
				<stop  offset="0.5042" style="stop-color:#F4A939"/>
				<stop  offset="0.5931" style="stop-color:#F19C35"/>
				<stop  offset="0.6722" style="stop-color:#EE8B31"/>
				<stop  offset="0.7444" style="stop-color:#EB762C"/>
				<stop  offset="0.8099" style="stop-color:#E75A27"/>
				<stop  offset="0.8622" style="stop-color:#E43825"/>
				<stop  offset="0.8754" style="stop-color:#E64525"/>
				<stop  offset="0.9312" style="stop-color:#EE6C23"/>
				<stop  offset="0.9746" style="stop-color:#F38120"/>
				<stop  offset="1" style="stop-color:#F6881F"/>
			</linearGradient>
			<path style="fill:url(#SVGID_00000008148425465506120970000004572283100090759100_);" d="M292.51,122.6
				c-2.52,6.51-8.12,22.07-9.81,24.92s-5.57,12.95-16.96,18.77c-10.64,5.44-19.09,7.81-26.32,9.07c-0.06,0.74-0.1,1.49-0.14,2.25
				c3.43-0.2,12.76-0.87,21.92-2.51c11.52-2.07,22.01-4.79,25.24-15.02c3.24-10.23,5.54-24.21,11.19-24.21v-18.71
				C297.64,117.16,295.03,116.09,292.51,122.6z"/>
			
				<radialGradient id="SVGID_00000070114231043843519900000012649544653829947574_" cx="760.4254" cy="421.6328" r="25.9908" gradientTransform="matrix(0 -0.5204 1.7693 0 -448.3187 576.5599)" gradientUnits="userSpaceOnUse">
				<stop  offset="0" style="stop-color:#FFFFFF;stop-opacity:0"/>
				<stop  offset="0.4959" style="stop-color:#FFFFFF"/>
				<stop  offset="1" style="stop-color:#FFFFFF;stop-opacity:0"/>
			</radialGradient>
			<path style="fill:url(#SVGID_00000070114231043843519900000012649544653829947574_);" d="M297.72,180.3
				c25.61,0,46.38,0.38,46.38,0.56c0,0.25-20.76,0.56-46.38,0.56c-25.61,0-46.48-0.22-46.48-0.56
				C251.24,180.6,272.11,180.3,297.72,180.3z"/>
			
				<radialGradient id="SVGID_00000155133232723242244040000012479860937580309683_" cx="297.6706" cy="180.8637" r="17.9743" gradientUnits="userSpaceOnUse">
				<stop  offset="0" style="stop-color:#FFFFFF;stop-opacity:0"/>
				<stop  offset="0.4959" style="stop-color:#FFFFFF"/>
				<stop  offset="1" style="stop-color:#FFFFFF;stop-opacity:0"/>
			</radialGradient>
			<path style="fill:url(#SVGID_00000155133232723242244040000012479860937580309683_);" d="M297.22,180.38
				c7.15-7.15,13.26-12.62,13.41-12.47c0.21,0.21-5.33,6.26-12.47,13.41c-7.15,7.15-13.15,12.79-13.43,12.5
				C284.5,193.6,290.07,187.53,297.22,180.38z"/>
			
				<radialGradient id="SVGID_00000114059462535080752740000016604549257433255813_" cx="297.6708" cy="180.8593" r="21.7614" gradientUnits="userSpaceOnUse">
				<stop  offset="0.1261" style="stop-color:#F7F7FA"/>
				<stop  offset="0.9318" style="stop-color:#F7F7FA;stop-opacity:0"/>
			</radialGradient>
			<circle style="fill:url(#SVGID_00000114059462535080752740000016604549257433255813_);" cx="297.67" cy="180.86" r="21.76"/>
			
				<radialGradient id="SVGID_00000152950332596888585280000010976277172668929686_" cx="538.4717" cy="421.6702" r="17.9743" gradientTransform="matrix(0 -1 1 0 -123.9957 719.3318)" gradientUnits="userSpaceOnUse">
				<stop  offset="0" style="stop-color:#FFFFFF;stop-opacity:0"/>
				<stop  offset="0.4959" style="stop-color:#FFFFFF"/>
				<stop  offset="1" style="stop-color:#FFFFFF;stop-opacity:0"/>
			</radialGradient>
			<path style="fill:url(#SVGID_00000152950332596888585280000010976277172668929686_);" d="M297.19,181.31
				c-7.15-7.15-12.62-13.26-12.47-13.41c0.21-0.21,6.26,5.33,13.41,12.47s12.79,13.15,12.5,13.43
				C310.41,194.03,304.34,188.46,297.19,181.31z"/>
			<path class="st26" d="M290.45,220c-0.18-2.17-0.36-4.29-0.61-6.48c-0.97-3.3-1.89-6.87-2.87-10.17
				c1.62,6.39,2.05,11.42,2.48,16.73c0.19,2.3,0.39,4.68,0.69,7.18c0.53,4.37,1.6,8.9,2.49,12.18c0.73,1.81,1.47,3.01,2.14,3.79
				c-0.69-2.21-2.82-9.34-3.64-16.09C290.84,224.66,290.64,222.29,290.45,220z"/>
			
				<linearGradient id="SVGID_00000033332421624467733460000007369631911045747630_" gradientUnits="userSpaceOnUse" x1="239.2875" y1="242.7237" x2="297.6405" y2="242.7237">
				<stop  offset="0" style="stop-color:#F7BB3D"/>
				<stop  offset="0.2665" style="stop-color:#F7B93D"/>
				<stop  offset="0.4001" style="stop-color:#F6B33B"/>
				<stop  offset="0.5042" style="stop-color:#F4A939"/>
				<stop  offset="0.5931" style="stop-color:#F19C35"/>
				<stop  offset="0.6722" style="stop-color:#EE8B31"/>
				<stop  offset="0.7444" style="stop-color:#EB762C"/>
				<stop  offset="0.8099" style="stop-color:#E75A27"/>
				<stop  offset="0.8622" style="stop-color:#E43825"/>
				<stop  offset="0.8754" style="stop-color:#E64525"/>
				<stop  offset="0.9312" style="stop-color:#EE6C23"/>
				<stop  offset="0.9746" style="stop-color:#F38120"/>
				<stop  offset="1" style="stop-color:#F6881F"/>
			</linearGradient>
			<path style="fill:url(#SVGID_00000033332421624467733460000007369631911045747630_);" d="M294.46,242.84
				c-0.06-0.07-0.11-0.15-0.17-0.23C294.35,242.69,294.41,242.76,294.46,242.84z"/>
			
				<linearGradient id="SVGID_00000140008336320135063450000011294751468715299469_" gradientUnits="userSpaceOnUse" x1="239.2875" y1="241.9937" x2="297.6405" y2="241.9937">
				<stop  offset="0" style="stop-color:#F7BB3D"/>
				<stop  offset="0.2665" style="stop-color:#F7B93D"/>
				<stop  offset="0.4001" style="stop-color:#F6B33B"/>
				<stop  offset="0.5042" style="stop-color:#F4A939"/>
				<stop  offset="0.5931" style="stop-color:#F19C35"/>
				<stop  offset="0.6722" style="stop-color:#EE8B31"/>
				<stop  offset="0.7444" style="stop-color:#EB762C"/>
				<stop  offset="0.8099" style="stop-color:#E75A27"/>
				<stop  offset="0.8622" style="stop-color:#E43825"/>
				<stop  offset="0.8754" style="stop-color:#E64525"/>
				<stop  offset="0.9312" style="stop-color:#EE6C23"/>
				<stop  offset="0.9746" style="stop-color:#F38120"/>
				<stop  offset="1" style="stop-color:#F6881F"/>
			</linearGradient>
			<path style="fill:url(#SVGID_00000140008336320135063450000011294751468715299469_);" d="M294,242.17
				c-0.07-0.11-0.15-0.24-0.22-0.36C293.86,241.94,293.93,242.06,294,242.17z"/>
			
				<linearGradient id="SVGID_00000000203506062159631470000018094888654007291033_" gradientUnits="userSpaceOnUse" x1="239.2875" y1="241.1833" x2="297.6405" y2="241.1833">
				<stop  offset="0" style="stop-color:#F7BB3D"/>
				<stop  offset="0.2665" style="stop-color:#F7B93D"/>
				<stop  offset="0.4001" style="stop-color:#F6B33B"/>
				<stop  offset="0.5042" style="stop-color:#F4A939"/>
				<stop  offset="0.5931" style="stop-color:#F19C35"/>
				<stop  offset="0.6722" style="stop-color:#EE8B31"/>
				<stop  offset="0.7444" style="stop-color:#EB762C"/>
				<stop  offset="0.8099" style="stop-color:#E75A27"/>
				<stop  offset="0.8622" style="stop-color:#E43825"/>
				<stop  offset="0.8754" style="stop-color:#E64525"/>
				<stop  offset="0.9312" style="stop-color:#EE6C23"/>
				<stop  offset="0.9746" style="stop-color:#F38120"/>
				<stop  offset="1" style="stop-color:#F6881F"/>
			</linearGradient>
			<path style="fill:url(#SVGID_00000000203506062159631470000018094888654007291033_);" d="M293.64,241.57
				c-0.13-0.24-0.27-0.49-0.4-0.77C293.37,241.07,293.51,241.33,293.64,241.57z"/>
			
				<linearGradient id="SVGID_00000098913428704093322890000013154057687239731609_" gradientUnits="userSpaceOnUse" x1="297.6001" y1="229.0755" x2="179.8535" y2="229.0755">
				<stop  offset="0" style="stop-color:#F6881F"/>
				<stop  offset="0.0254" style="stop-color:#F38120"/>
				<stop  offset="0.0688" style="stop-color:#EE6C23"/>
				<stop  offset="0.1246" style="stop-color:#E64525"/>
				<stop  offset="0.1378" style="stop-color:#E43825"/>
				<stop  offset="0.1901" style="stop-color:#E75A27"/>
				<stop  offset="0.2556" style="stop-color:#EB762C"/>
				<stop  offset="0.3278" style="stop-color:#EE8B31"/>
				<stop  offset="0.4069" style="stop-color:#F19C35"/>
				<stop  offset="0.4958" style="stop-color:#F4A939"/>
				<stop  offset="0.5999" style="stop-color:#F6B33B"/>
				<stop  offset="0.7335" style="stop-color:#F7B93D"/>
				<stop  offset="1" style="stop-color:#F7BB3D"/>
			</linearGradient>
			<path style="fill:url(#SVGID_00000098913428704093322890000013154057687239731609_);" d="M289.84,213.52
				c0.25,2.19,0.43,4.31,0.61,6.48c0.19,2.29,0.38,4.66,0.68,7.14c0.82,6.75,2.94,13.88,3.64,16.09c1.61,1.86,2.87,1.35,2.87,1.35
				v-18.71C294.06,225.86,291.83,220.24,289.84,213.52z"/>
			
				<linearGradient id="SVGID_00000022533418805166480480000005787819718995002756_" gradientUnits="userSpaceOnUse" x1="291.9642" y1="212.3727" x2="226.7658" y2="212.3727">
				<stop  offset="0" style="stop-color:#F6881F"/>
				<stop  offset="0.0133" style="stop-color:#F38120"/>
				<stop  offset="0.036" style="stop-color:#EE6C23"/>
				<stop  offset="0.0652" style="stop-color:#E64525"/>
				<stop  offset="0.0721" style="stop-color:#E43825"/>
				<stop  offset="0.0808" style="stop-color:#E54326"/>
				<stop  offset="0.1182" style="stop-color:#E96429"/>
				<stop  offset="0.1602" style="stop-color:#EC7D2D"/>
				<stop  offset="0.2067" style="stop-color:#EF8F32"/>
				<stop  offset="0.2592" style="stop-color:#F29F36"/>
				<stop  offset="0.3204" style="stop-color:#F4AB39"/>
				<stop  offset="0.3962" style="stop-color:#F6B43C"/>
				<stop  offset="0.5025" style="stop-color:#F7B93D"/>
				<stop  offset="0.7975" style="stop-color:#F7BB3D"/>
			</linearGradient>
			<path style="fill:url(#SVGID_00000022533418805166480480000005787819718995002756_);" d="M290.14,227.26
				c-0.3-2.5-0.5-4.88-0.69-7.18c-0.44-5.31-0.86-10.35-2.48-16.73c0.49,1.64,0.16,0.45-0.52-1.69
				c-3.24-10.23-13.72-12.95-25.24-15.02c-9.17-1.65-18.49-2.31-21.92-2.51c0.03,0.76,0.08,1.51,0.14,2.25
				c7.23,1.26,15.68,3.63,26.32,9.07c11.39,5.83,15.28,15.92,16.96,18.77c1.68,2.85,7.28,18.42,9.81,24.92
				c0.22,0.56,0.43,1.04,0.65,1.49c-0.17-0.36-0.35-0.76-0.52-1.18C291.75,236.15,290.67,231.63,290.14,227.26z"/>
			<path class="st26" d="M294.77,243.22L294.77,243.22c-0.1-0.12-0.21-0.25-0.31-0.39C294.57,242.97,294.67,243.11,294.77,243.22z"
				/>
			<path class="st26" d="M294.3,242.61c-0.1-0.14-0.19-0.28-0.29-0.44C294.1,242.33,294.2,242.47,294.3,242.61z"/>
			<path class="st26" d="M289.84,213.52c-0.49-1.66-0.96-3.39-1.44-5.11C288.88,210.13,289.35,211.86,289.84,213.52
				C289.84,213.52,289.84,213.52,289.84,213.52z"/>
			<path class="st26" d="M293.78,241.81c-0.05-0.08-0.09-0.16-0.14-0.24C293.69,241.65,293.74,241.73,293.78,241.81z"/>
			<path class="st26" d="M293.24,240.8c-0.03-0.06-0.06-0.12-0.09-0.18C293.18,240.68,293.21,240.74,293.24,240.8z"/>
			<path class="st26" d="M290.45,220c-0.18-2.17-0.36-4.29-0.61-6.48c-0.49-1.66-0.96-3.38-1.44-5.11
				c-0.47-1.71-0.94-3.42-1.43-5.06c1.62,6.39,2.05,11.42,2.48,16.73c0.19,2.3,0.39,4.68,0.69,7.18c0.53,4.37,1.6,8.9,2.49,12.18
				c0.17,0.43,0.35,0.82,0.52,1.18c0.03,0.06,0.06,0.12,0.09,0.18c0.14,0.28,0.27,0.53,0.4,0.77c0.05,0.08,0.09,0.17,0.14,0.24
				c0.07,0.12,0.15,0.25,0.22,0.36c0.1,0.15,0.2,0.3,0.29,0.44c0.06,0.08,0.11,0.15,0.17,0.23c0.1,0.14,0.21,0.27,0.31,0.39
				c-0.69-2.21-2.82-9.34-3.64-16.09C290.84,224.66,290.64,222.29,290.45,220z"/>
		</g>
	</g>
</g>
<g id="Layer_2" class="st105">
</g>
</svg>
